<?xml version="1.0" encoding="utf-8"?>
<!-- Generator: Adobe Illustrator 25.0.1, SVG Export Plug-In . SVG Version: 6.00 Build 0)  -->
<svg version="1.1" id="Editable-line" xmlns="http://www.w3.org/2000/svg" xmlns:xlink="http://www.w3.org/1999/xlink" x="0px"
	 y="0px" viewBox="0 0 32 32" style="enable-background:new 0 0 32 32;" xml:space="preserve">
<style type="text/css">
	.st0{fill:#E11D48;stroke:#000000;stroke-width:0.25;stroke-linecap:round;stroke-linejoin:round;stroke-miterlimit:10;}
</style>
<path id="XMLID_16_" class="st0" d="M16.8,3.5l3.3,7c0.1,0.3,0.4,0.5,0.7,0.5l7.4,1.1c0.8,0.1,1.1,1.1,0.5,1.7l-5.3,5.4
	c-0.2,0.2-0.3,0.6-0.3,0.9l1.3,7.7c0.1,0.8-0.7,1.4-1.4,1l-6.6-3.6c-0.3-0.2-0.6-0.2-0.9,0L9,28.9c-0.7,0.4-1.5-0.2-1.4-1l1.3-7.7
	c0.1-0.3,0-0.6-0.3-0.9l-5.3-5.4c-0.6-0.6-0.2-1.6,0.5-1.7l7.4-1.1c0.3,0,0.6-0.2,0.7-0.5l3.3-7C15.5,2.8,16.5,2.8,16.8,3.5z"/>
</svg>
