<svg id="visual" viewBox="0 0 900 600" width="900" height="600" xmlns="http://www.w3.org/2000/svg" xmlns:xlink="http://www.w3.org/1999/xlink" version="1.1"><path d="M0 262L129 325L257 276L386 393L514 348L643 268L771 385L900 402L900 601L771 601L643 601L514 601L386 601L257 601L129 601L0 601Z" fill="#bae6fd"></path><path d="M0 341L129 329L257 321L386 350L514 339L643 424L771 392L900 390L900 601L771 601L643 601L514 601L386 601L257 601L129 601L0 601Z" fill="#9ad6f7"></path><path d="M0 481L129 456L257 396L386 391L514 439L643 420L771 419L900 465L900 601L771 601L643 601L514 601L386 601L257 601L129 601L0 601Z" fill="#78c5f2"></path><path d="M0 482L129 441L257 517L386 496L514 503L643 463L771 507L900 514L900 601L771 601L643 601L514 601L386 601L257 601L129 601L0 601Z" fill="#52b5ed"></path><path d="M0 556L129 503L257 529L386 506L514 511L643 549L771 530L900 495L900 601L771 601L643 601L514 601L386 601L257 601L129 601L0 601Z" fill="#0ea4e9"></path></svg>