<svg id="visual" viewBox="0 0 900 600" width="900" height="600" xmlns="http://www.w3.org/2000/svg" xmlns:xlink="http://www.w3.org/1999/xlink" version="1.1"><path d="M0 510L129 538L257 502L386 533L514 506L643 529L771 514L900 507L900 601L771 601L643 601L514 601L386 601L257 601L129 601L0 601Z" fill="#bae6fd"></path><path d="M0 546L129 519L257 529L386 541L514 544L643 534L771 547L900 529L900 601L771 601L643 601L514 601L386 601L257 601L129 601L0 601Z" fill="#96ceef"></path><path d="M0 538L129 560L257 561L386 540L514 555L643 538L771 547L900 560L900 601L771 601L643 601L514 601L386 601L257 601L129 601L0 601Z" fill="#71b7e1"></path><path d="M0 573L129 568L257 563L386 572L514 557L643 567L771 562L900 571L900 601L771 601L643 601L514 601L386 601L257 601L129 601L0 601Z" fill="#499fd4"></path><path d="M0 570L129 582L257 572L386 583L514 582L643 582L771 584L900 576L900 601L771 601L643 601L514 601L386 601L257 601L129 601L0 601Z" fill="#0288c7"></path></svg>