<svg id="visual" viewBox="0 0 900 600" width="900" height="600" xmlns="http://www.w3.org/2000/svg" xmlns:xlink="http://www.w3.org/1999/xlink" version="1.1"><path d="M0 567L16.7 566C33.3 565 66.7 563 100 560.8C133.3 558.7 166.7 556.3 200 557.3C233.3 558.3 266.7 562.7 300 563C333.3 563.3 366.7 559.7 400 558.3C433.3 557 466.7 558 500 558.5C533.3 559 566.7 559 600 560C633.3 561 666.7 563 700 563.8C733.3 564.7 766.7 564.3 800 562.8C833.3 561.3 866.7 558.7 883.3 557.3L900 556L900 601L883.3 601C866.7 601 833.3 601 800 601C766.7 601 733.3 601 700 601C666.7 601 633.3 601 600 601C566.7 601 533.3 601 500 601C466.7 601 433.3 601 400 601C366.7 601 333.3 601 300 601C266.7 601 233.3 601 200 601C166.7 601 133.3 601 100 601C66.7 601 33.3 601 16.7 601L0 601Z" fill="#fecaca"></path><path d="M0 572L16.7 571.8C33.3 571.7 66.7 571.3 100 570.5C133.3 569.7 166.7 568.3 200 568.2C233.3 568 266.7 569 300 568.3C333.3 567.7 366.7 565.3 400 563.2C433.3 561 466.7 559 500 558.2C533.3 557.3 566.7 557.7 600 559.8C633.3 562 666.7 566 700 567.5C733.3 569 766.7 568 800 568.2C833.3 568.3 866.7 569.7 883.3 570.3L900 571L900 601L883.3 601C866.7 601 833.3 601 800 601C766.7 601 733.3 601 700 601C666.7 601 633.3 601 600 601C566.7 601 533.3 601 500 601C466.7 601 433.3 601 400 601C366.7 601 333.3 601 300 601C266.7 601 233.3 601 200 601C166.7 601 133.3 601 100 601C66.7 601 33.3 601 16.7 601L0 601Z" fill="#fdadab"></path><path d="M0 574L16.7 574.2C33.3 574.3 66.7 574.7 100 573.3C133.3 572 166.7 569 200 569.8C233.3 570.7 266.7 575.3 300 575.5C333.3 575.7 366.7 571.3 400 571C433.3 570.7 466.7 574.3 500 576.2C533.3 578 566.7 578 600 577.3C633.3 576.7 666.7 575.3 700 573.3C733.3 571.3 766.7 568.7 800 569.3C833.3 570 866.7 574 883.3 576L900 578L900 601L883.3 601C866.7 601 833.3 601 800 601C766.7 601 733.3 601 700 601C666.7 601 633.3 601 600 601C566.7 601 533.3 601 500 601C466.7 601 433.3 601 400 601C366.7 601 333.3 601 300 601C266.7 601 233.3 601 200 601C166.7 601 133.3 601 100 601C66.7 601 33.3 601 16.7 601L0 601Z" fill="#f98f8a"></path><path d="M0 572L16.7 572.2C33.3 572.3 66.7 572.7 100 573C133.3 573.3 166.7 573.7 200 573.8C233.3 574 266.7 574 300 574.2C333.3 574.3 366.7 574.7 400 576.5C433.3 578.3 466.7 581.7 500 581.2C533.3 580.7 566.7 576.3 600 576.3C633.3 576.3 666.7 580.7 700 581.7C733.3 582.7 766.7 580.3 800 580.3C833.3 580.3 866.7 582.7 883.3 583.8L900 585L900 601L883.3 601C866.7 601 833.3 601 800 601C766.7 601 733.3 601 700 601C666.7 601 633.3 601 600 601C566.7 601 533.3 601 500 601C466.7 601 433.3 601 400 601C366.7 601 333.3 601 300 601C266.7 601 233.3 601 200 601C166.7 601 133.3 601 100 601C66.7 601 33.3 601 16.7 601L0 601Z" fill="#f2716a"></path><path d="M0 589L16.7 588.2C33.3 587.3 66.7 585.7 100 585.7C133.3 585.7 166.7 587.3 200 587.2C233.3 587 266.7 585 300 583.3C333.3 581.7 366.7 580.3 400 579.8C433.3 579.3 466.7 579.7 500 579.8C533.3 580 566.7 580 600 581.5C633.3 583 666.7 586 700 586.8C733.3 587.7 766.7 586.3 800 586.3C833.3 586.3 866.7 587.7 883.3 588.3L900 589L900 601L883.3 601C866.7 601 833.3 601 800 601C766.7 601 733.3 601 700 601C666.7 601 633.3 601 600 601C566.7 601 533.3 601 500 601C466.7 601 433.3 601 400 601C366.7 601 333.3 601 300 601C266.7 601 233.3 601 200 601C166.7 601 133.3 601 100 601C66.7 601 33.3 601 16.7 601L0 601Z" fill="#e95048"></path><path d="M0 591L16.7 591.5C33.3 592 66.7 593 100 593.3C133.3 593.7 166.7 593.3 200 592.7C233.3 592 266.7 591 300 590.3C333.3 589.7 366.7 589.3 400 589.8C433.3 590.3 466.7 591.7 500 592.3C533.3 593 566.7 593 600 593.2C633.3 593.3 666.7 593.7 700 592.8C733.3 592 766.7 590 800 589C833.3 588 866.7 588 883.3 588L900 588L900 601L883.3 601C866.7 601 833.3 601 800 601C766.7 601 733.3 601 700 601C666.7 601 633.3 601 600 601C566.7 601 533.3 601 500 601C466.7 601 433.3 601 400 601C366.7 601 333.3 601 300 601C266.7 601 233.3 601 200 601C166.7 601 133.3 601 100 601C66.7 601 33.3 601 16.7 601L0 601Z" fill="#dc2626"></path></svg>