<?xml version="1.0" encoding="utf-8"?>
<!-- Generator: Adobe Illustrator 25.0.1, SVG Export Plug-In . SVG Version: 6.00 Build 0)  -->
<svg version="1.1" id="Слой_1" xmlns="http://www.w3.org/2000/svg" xmlns:xlink="http://www.w3.org/1999/xlink" x="0px" y="0px"
	 viewBox="0 0 3000 108" style="enable-background:new 0 0 3000 108;" xml:space="preserve">
<style type="text/css">
	.st0{fill:url(#SVGID_1_);}
	.st1{fill:url(#SVGID_2_);}
	.st2{fill:url(#SVGID_3_);}
	.st3{fill:url(#SVGID_4_);}
	.st4{fill:url(#SVGID_5_);}
	.st5{fill:url(#SVGID_6_);}
	.st6{fill:url(#SVGID_7_);}
	.st7{fill:#6EE7B7;}
	.st8{fill:#65DEAE;}
	.st9{fill:#5BD5A5;}
	.st10{fill:#52CC9C;}
	.st11{fill:#48C293;}
	.st12{fill:#3EB98B;}
	.st13{fill:#33B082;}
	.st14{fill:#28A87A;}
	.st15{fill:#1A9F71;}
	.st16{fill:#059669;}
</style>
<linearGradient id="SVGID_1_" gradientUnits="userSpaceOnUse" x1="-998.2798" y1="422.1289" x2="4495.0674" y2="422.1289" gradientTransform="matrix(0.5461 0 0 -0.5461 545.0939 284.7386)">
	<stop  offset="0.2348" style="stop-color:#D1FAE5"/>
	<stop  offset="0.3643" style="stop-color:#FEE2E2"/>
	<stop  offset="0.682" style="stop-color:#F8E3E7"/>
	<stop  offset="0.8111" style="stop-color:#DBEAFE"/>
</linearGradient>
<rect x="-0.1" y="0.3" class="st0" width="3000.1" height="107.8"/>
<linearGradient id="SVGID_2_" gradientUnits="userSpaceOnUse" x1="-228.3908" y1="342.9663" x2="4495.0674" y2="342.9663" gradientTransform="matrix(0.5461 0 0 -0.5461 545.0939 284.7386)">
	<stop  offset="0.1121" style="stop-color:#D1FAE5"/>
	<stop  offset="0.2827" style="stop-color:#FA7268"/>
	<stop  offset="0.7135" style="stop-color:#FA7268"/>
	<stop  offset="0.818" style="stop-color:#C0D9FE"/>
</linearGradient>
<path class="st1" d="M420.36,88.04v20.05l779.65,0.01L3000,108.09V88.04l-83.7,3.72l-88-3.4l-86,2.19l-85.33-1.4l-86-2.39
	l-85.33,6.28l-86-3.79l-151.52,3.02l-60.81,0.65l-65.74-2.01c-20.52,0.84-45.07,1.61-73.07,2.01c-35.78,0.52-67.22,0.3-92.41-0.13
	c-6.78-0.16-17.07-0.42-29.52-0.8l-89.74-2.05c-15.07-0.4-26.89-0.75-37.26-1.02l-7.78-0.2c-15.89-0.17-22.89-0.41-38.22-0.26
	c-15.33,0.15-30.67,0.65-46.15,1.47c-15.41,0.81-31,1.94-46.41,1.92c-15.48-0.02-30.82-1.18-46.15-1.38c-15.33-0.2-30.67,0.56-46,1
	c-15.33,0.43-30.67,0.53-46.15,0.51c-15.41-0.01-31-0.15-46.41-0.81c-15.41-0.67-30.74-1.86-46.07-2.08
	c-15.33-0.21-30.67,0.55-46,0.55s-30.67-0.76-46.15-0.53c-15.41,0.23-31,1.47-46.41,2.04c-15.48,0.58-30.81,0.52-46.15,0.02
	c-15.33-0.5-30.67-1.44-38.33-1.89l-7.18-0.43l-7.18,0.43c-7.67,0.46-23,1.4-38.33,1.89s-30.67,0.56-46.15-0.02
	c-15.41-0.58-31-1.81-46.41-2.04c-15.48-0.23-30.81,0.53-46.15,0.53c-15.33,0-30.67-0.76-46-0.55c-15.33,0.22-30.67,1.42-46.07,2.08
	c-15.41,0.66-31,0.8-46.41,0.81c-15.48,0.02-30.82-0.08-46.15-0.51c-15.33-0.44-30.67-1.2-46-1c-15.33,0.2-30.67,1.36-46.15,1.38
	c-15.41,0.02-31-1.12-46.41-1.92c-15.48-0.82-30.82-1.32-46.15-1.47c-15.33-0.15-22.33,0.09-38.22,0.26l-7.78,0.2
	c-10.37,0.27-22.18,0.62-37.26,1.02"/>
<linearGradient id="SVGID_3_" gradientUnits="userSpaceOnUse" x1="-228.3139" y1="340.5109" x2="4495.0674" y2="340.5109" gradientTransform="matrix(0.5461 0 0 -0.5461 545.0939 284.7386)">
	<stop  offset="0.1109" style="stop-color:#D1FAE5"/>
	<stop  offset="0.2848" style="stop-color:#F16367"/>
	<stop  offset="0.7173" style="stop-color:#F16367"/>
	<stop  offset="0.8187" style="stop-color:#A6C8FE"/>
</linearGradient>
<path class="st2" d="M420.4,90.46v17.64l779.65,0v-0.01l1799.95,0V90.45l-86.15,3.69l-85.33-2.89l-86-1.79l-85.33,2.89l-86,3.49
	l-85.33-3.19l-86,0.9l-86.7,1.59l-117.18-1.73l-46.52,1.36c0,0-51.44-1.02-81.41-1.09c-29.96-0.07-57.7,2-76.92,3.95
	c-19.22,1.94-87.67-3.14-87.67-3.14s-69.33-2.87-80.04-3.01c-10.74-0.13-23.48,0.9-23.48,0.9l-7.67,0.53
	c-7.67,0.54-23,1.6-38.33,1.44c-15.33-0.17-30.67-1.57-46.15-2.43c-15.41-0.86-31-1.2-46.41-0.8c-15.48,0.4-30.81,1.54-46.15,2.26
	c-15.33,0.73-30.67,1.07-46,0.52c-15.33-0.55-30.67-1.98-46.15-1.93c-15.41,0.05-31,1.59-46.41,1.84
	c-15.48,0.27-30.81-0.73-46.15-0.71c-15.33,0.01-30.67,1.05-46,1.51c-15.33,0.47-30.67,0.37-46.15,0.04
	c-15.41-0.34-31-0.9-46.41-1.1c-15.48-0.2-30.81-0.04-46.15,0.2c-15.33,0.23-30.67,0.53-38.33,0.68l-7.48,0.14v0.01l-7.44-0.14
	c-7.67-0.15-23-0.45-38.33-0.68c-15.33-0.24-30.67-0.4-46.15-0.2c-15.41,0.2-31,0.76-46.41,1.1c-15.48,0.33-30.81,0.43-46.15-0.04
	c-15.33-0.46-30.67-1.5-46-1.51c-15.33-0.02-30.67,0.98-46.15,0.71c-15.41-0.26-31-1.79-46.41-1.84
	c-15.48-0.05-30.82,1.39-46.15,1.93c-15.33,0.55-30.67,0.21-46-0.52s-30.67-1.86-46.15-2.26c-15.41-0.4-31-0.06-46.41,0.8
	c-15.48,0.87-30.82,2.26-46.15,2.43c-15.33,0.16-30.67-0.9-38.33-1.44l-7.67-0.53c0,0-12.74-1.03-23.48-0.9
	c-10.7,0.14-80.04,3.01-80.04,3.01"/>
<linearGradient id="SVGID_4_" gradientUnits="userSpaceOnUse" x1="-228.6618" y1="337.8644" x2="4495.0674" y2="337.8644" gradientTransform="matrix(0.5461 0 0 -0.5461 545.0939 284.7386)">
	<stop  offset="0.1114" style="stop-color:#D1FAE5"/>
	<stop  offset="0.2853" style="stop-color:#E85467"/>
	<stop  offset="0.7171" style="stop-color:#E85467"/>
	<stop  offset="0.8192" style="stop-color:#8CB7FD"/>
</linearGradient>
<path class="st3" d="M420.21,93.14v14.95l779.73,0.01L3000,108.09V93.14l-68.37,1.52l-88.29,2.93l-88.96-3.84l-88.29,4.15
	l-88.96-5.55l-88.29,2.73l-88.96-1.03l-67.89,3.14l-123,2.59c0,0-85.41-2.36-110.89-1.64c-25.48,0.72-98.85-1.29-123.89-2.99
	c-25.04-1.7-55.89,1.07-75.11,2.48s-40.7-1.94-55-0.8c-13.93,1.13-42.48,0.73-44.04,0.71l-7.67-0.08c-7.67-0.09-23-0.25-38.33-0.87
	s-30.67-1.67-46.15-1.89c-15.41-0.22-31,0.42-46.41,0.68c-15.48,0.27-30.82,0.17-46.15-0.05c-15.33-0.21-30.67-0.55-46-0.13
	c-15.33,0.42-30.67,1.58-46.15,1.62c-15.41,0.03-31-1.07-46.41-1.14c-15.48-0.06-30.81,0.9-46.15,1.39
	c-15.33,0.48-30.67,0.48-46-0.17c-15.33-0.65-30.67-1.94-46.15-2.46c-15.41-0.51-31-0.25-46.41,0.29
	c-15.48,0.53-30.81,1.33-46.15,1.43c-15.33,0.1-30.67-0.5-38.33-0.8l-7.67-0.3l-7.67,0.3c-7.67,0.3-23,0.9-38.33,0.8
	c-15.33-0.1-30.67-0.9-46.15-1.43c-15.41-0.54-31-0.8-46.41-0.29c-15.48,0.52-30.82,1.81-46.15,2.46s-30.67,0.65-46,0.17
	c-15.33-0.49-30.67-1.45-46.15-1.39c-15.41,0.07-31,1.17-46.41,1.14c-15.48-0.04-30.82-1.2-46.15-1.62
	c-15.33-0.42-30.67-0.08-46,0.13c-15.33,0.22-30.67,0.32-46.15,0.05c-15.41-0.26-31-0.9-46.41-0.68
	c-15.48,0.22-30.82,1.28-46.15,1.89c-15.33,0.62-30.67,0.78-38.33,0.87l-7.67,0.08c-1.56,0.02-30.11,0.42-44.04-0.71
	c-14.3-1.15-35.78,2.21-55,0.8"/>
<linearGradient id="SVGID_5_" gradientUnits="userSpaceOnUse" x1="-228.3908" y1="334.7154" x2="4495.0674" y2="334.7154" gradientTransform="matrix(0.5461 0 0 -0.5461 545.0939 284.7386)">
	<stop  offset="0.1093" style="stop-color:#D1FAE5"/>
	<stop  offset="0.2894" style="stop-color:#DE4467"/>
	<stop  offset="0.7182" style="stop-color:#DE4467"/>
	<stop  offset="0.8186" style="stop-color:#72A6FB"/>
</linearGradient>
<path class="st4" d="M420.36,95.78v12.32h779.65H3000V95.78l-86.67,1.63l-85.33,1.4l-86-1.69l-85.33,2.59l-86,1l-85.33-1.6l-86,0.1
	L2274.19,100l-96.59-3.48c-24.15,0.36-48.3,0.72-72.44,1.07c-3.44-0.14-8.7-0.32-15.22-0.43c-36.19-0.58-48.89,2.27-80.96,2.16
	c-22-0.07-19.85-1.49-46.96-1.61c-12.93-0.06-25.48,0.28-50.07,0.94c-22.78,0.61-27.3,0.88-36.22,1.1
	c-17.33,0.42-42.07,0.55-75.7-1.42l-7.67-0.38c-7.67-0.29-23-0.85-38.33-0.55c-15.33,0.3-30.67,1.46-46.15,1.53
	c-15.41,0.07-31-0.97-46.41-0.95c-15.48,0.02-30.81,1.08-46.15,1.66c-15.33,0.58-30.67,0.68-46,0.8
	c-15.33,0.11-30.67,0.25-46.15-0.05c-15.41-0.3-31-1.04-46.41-1.71c-15.48-0.68-30.81-1.32-46.15-1.62
	c-15.33-0.32-30.67-0.32-46,0.1c-15.33,0.41-30.67,1.25-46.15,1.4c-15.41,0.15-31-0.39-46.41-0.72
	c-15.48-0.33-30.81-0.47-46.15-0.05c-15.33,0.42-30.67,1.37-38.33,1.86l-7.56,0.48l-7.56-0.48c-7.67-0.49-23-1.44-38.33-1.86
	c-15.33-0.42-30.67-0.28-46.15,0.05c-15.41,0.33-31,0.87-46.41,0.72c-15.48-0.15-30.82-0.99-46.15-1.4
	c-15.33-0.42-30.67-0.42-46-0.1c-15.33,0.31-30.67,0.95-46.15,1.62c-15.41,0.68-31,1.42-46.41,1.71
	c-15.48,0.3-30.82,0.16-46.15,0.05c-15.33-0.12-30.67-0.22-46-0.8c-15.33-0.59-30.67-1.64-46.15-1.66
	c-15.41-0.02-31,1.02-46.41,0.95c-15.48-0.07-30.82-1.23-46.15-1.53s-30.67,0.26-38.33,0.55l-7.67,0.38
	c-33.63,1.96-58.37,1.83-75.7,1.42c-8.92-0.22-13.44-0.49-36.22-1.1"/>
<linearGradient id="SVGID_6_" gradientUnits="userSpaceOnUse" x1="-228.3835" y1="332.063" x2="4495.0674" y2="332.063" gradientTransform="matrix(0.5461 0 0 -0.5461 545.0939 284.7386)">
	<stop  offset="0.1088" style="stop-color:#D1FAE5"/>
	<stop  offset="0.2915" style="stop-color:#D23467"/>
	<stop  offset="0.7182" style="stop-color:#D23467"/>
	<stop  offset="0.8186" style="stop-color:#5894F9"/>
</linearGradient>
<path class="st5" d="M420.37,103.25v4.85l779.65,0l1799.98,0v-4.85l-86.22,0.39l-85.33-3.69l-86,2.19l-85.33-1.6l-86-1.3l-85.33,0.3
	l-85.96,3.99v-0.02c-18-0.87-36.04-1.74-54.04-2.61c-9.26,0.32-21.92,0.72-37.11,1.05c-9.59,0.21-27,0.6-43.85,0.67
	c-19.93,0.08-18.44-0.38-80.04-1.71c-32-0.7-42.63-0.8-54.11-0.76c-5.7,0.02-10.96,0.08-19.22,0c-20.15-0.19-34.59-0.94-38.3-1.11
	c-23.07-1.09-47.63,0.53-91.85,1.52c-61.44,1.37-74.04-0.43-146.66,1.37c-14.81,0.37-11.44,0.53-19.3,0.8l-15.33,0.3l-7.67,0.07
	c-7.67,0.06-23,0.2-38.33-0.15c-15.33-0.35-30.67-1.19-46.15-1.54c-15.41-0.35-31-0.21-46.41,0.19c-15.48,0.4-30.82,1.06-46.15,1.21
	c-15.33,0.15-30.67-0.21-46-0.48c-15.33-0.27-30.67-0.43-46.15-0.23c-15.41,0.2-31,0.76-46.41,1.06
	c-15.48,0.3-30.82,0.34-46.15,0.15c-15.33-0.18-30.67-0.58-46-1.03c-15.33-0.45-30.67-0.95-46.15-1.03
	c-15.41-0.09-31,0.25-46.41,0.61c-15.48,0.37-30.82,0.77-46.15,0.7c-15.33-0.06-30.67-0.6-38.33-0.86l-7.56-0.27l-7.56,0.27
	c-7.67,0.26-23,0.8-38.33,0.86c-15.33,0.07-30.67-0.33-46.15-0.7c-15.41-0.36-31-0.7-46.41-0.61c-15.48,0.08-30.81,0.58-46.15,1.03
	c-15.33,0.45-30.67,0.85-46,1.03c-15.33,0.19-30.67,0.15-46.15-0.15c-15.41-0.3-31-0.86-46.41-1.06
	c-15.48-0.2-30.82-0.04-46.15,0.23c-15.33,0.27-30.67,0.63-46,0.48c-15.33-0.15-30.67-0.81-46.15-1.21
	c-15.41-0.4-31-0.54-46.41-0.19c-15.48,0.35-30.82,1.19-46.15,1.54c-15.33,0.35-30.67,0.21-38.33,0.15l-7.67-0.07l-15.33-0.3
	c-7.85-0.27-4.48-0.43-19.3-0.8"/>
<linearGradient id="SVGID_7_" gradientUnits="userSpaceOnUse" x1="-228.5227" y1="329.0843" x2="4495.0674" y2="329.0843" gradientTransform="matrix(0.5461 0 0 -0.5461 545.0939 284.7386)">
	<stop  offset="0.1089" style="stop-color:#D1FAE5"/>
	<stop  offset="0.2911" style="stop-color:#C62368"/>
	<stop  offset="0.7199" style="stop-color:#C62368"/>
	<stop  offset="0.8186" style="stop-color:#3B82F6"/>
</linearGradient>
<path class="st6" d="M420.29,105.03v3.07l779.69,0l1800.02,0v-3.07l-86-0.12l-85.33-1.79l-86,2.09l-85.33,0.8l-86-2.49l-85.33,1.89
	l-86-0.4v0.01l-141.18-3.09l-125.7,0.55c0,0-61.74,1.22-73.81,1.63c-12.07,0.42-65.33-1.07-89.04,0
	c-23.7,1.07-81.89,1.73-97.96,1.07c-15.96-0.67-60.96-0.57-66.96-0.67l-12.93-0.2c-7.67-0.2-23-0.6-38.33-0.88
	c-15.33-0.29-30.67-0.45-46.15-0.09c-15.41,0.37-31,1.27-46.41,1.6c-15.48,0.34-30.82,0.1-46.15-0.25c-15.33-0.35-30.67-0.81-46-0.8
	c-15.33,0.02-30.67,0.52-46.15,0.67c-15.41,0.15-31-0.05-46.41-0.27c-15.48-0.21-30.81-0.45-46.15-0.21
	c-15.33,0.23-30.67,0.93-46,1.13c-15.33,0.2-30.67-0.1-46.15-0.48c-15.41-0.39-31-0.85-46.41-0.89
	c-15.48-0.03-30.81,0.37-46.15,0.67c-15.33,0.3-30.67,0.5-38.33,0.6l-7.67,0.1l-7.67-0.1c-7.67-0.1-23-0.3-38.33-0.6
	c-15.33-0.3-30.67-0.7-46.15-0.67c-15.41,0.04-31,0.5-46.41,0.89c-15.48,0.38-30.82,0.68-46.15,0.48c-15.33-0.2-30.67-0.9-46-1.13
	c-15.33-0.24-30.67,0-46.15,0.21c-15.41,0.22-31,0.42-46.41,0.27c-15.48-0.15-30.82-0.65-46.15-0.67c-15.33-0.01-30.67,0.45-46,0.8
	c-15.33,0.35-30.67,0.59-46.15,0.25c-15.41-0.33-31-1.23-46.41-1.6c-15.48-0.36-30.82-0.2-46.15,0.09
	c-15.33,0.28-30.67,0.68-38.33,0.88l-12.93,0.2c-6,0.1-51,0-66.96,0.67"/>
<path class="st7" d="M50.74,0.3h-8.08v5.91h10.66v6.09H14v5.91h29.76v5.91H22.82v6.09h9.55v5.91h3.67v5.91H13.63v6.09h7.35V54h0.73
	v5.91h-4.04v6.09h-6.98v5.91h33.07v5.91H13.63v6.09H61.4v5.91H22.08v5.91h10.66v6.09H9.96v5.91H-0.7v-5.91l0,0v-6.09l0,0V89.8l0,0
	v-5.91l0,0v-6.09l0,0V71.9l0,0v-5.91l0,0v-6.09l0,0V54l0,0v-5.91l0,0v-6.09l0,0V36.1l0,0v-5.91l0,0v-6.09l0,0V18.2l0,0v-5.91l0,0
	V6.21l0,0V0.3l0,0H50.74z"/>
<path class="st8" d="M25.02,0.3h13.23v5.91h8.82v6.09h-7.35v5.91H16.2v5.91h32.7v6.09H12.16v5.91h8.08v5.91h-5.51v6.09h11.39V54
	h-14.7v5.91h15.07v6.09h9.92v5.91H15.1v5.91h6.25v6.09h-9.55v5.91h16.9v5.91h-7.72v6.09h7.72v5.91H-0.7v-5.91l0,0v-6.09l0,0V89.8
	l0,0v-5.91l0,0v-6.09l0,0V71.9l0,0v-5.91l0,0v-6.09l0,0V54l0,0v-5.91l0,0v-6.09l0,0V36.1l0,0v-5.91l0,0v-6.09l0,0V18.2l0,0v-5.91
	l0,0V6.21l0,0V0.3l0,0H25.02z"/>
<path class="st9" d="M47.07,0.3H32v5.91h18.74v6.09h-14.7v5.91H19.51v5.91h28.66v6.09H6.65v5.91h27.93v5.91h7.72v6.09h-5.51V54
	h-4.04v5.91H11.79v6.09h30.5v5.91h6.98v5.91h-9.55v6.09h3.31v5.91h6.61v5.91H22.82v6.09h26.82v5.91H-0.7v-5.91l0,0v-6.09l0,0V89.8
	l0,0v-5.91l0,0v-6.09l0,0V71.9l0,0v-5.91l0,0v-6.09l0,0V54l0,0v-5.91l0,0v-6.09l0,0V36.1l0,0v-5.91l0,0v-6.09l0,0V18.2l0,0v-5.91
	l0,0V6.21l0,0V0.3l0,0H47.07z"/>
<path class="st10" d="M44.86,0.3h-9.55v5.91H7.75v6.09h2.2v5.91h13.6v5.91h-0.73v6.09h-4.41v5.91h-5.14v5.91h29.4v6.09H19.51V54
	h13.96v5.91H16.94v6.09h1.1v5.91h12.49v5.91h-16.9v6.09h-2.57v5.91h22.78v5.91H28.7v6.09H8.49v5.91H-0.7v-5.91l0,0v-6.09l0,0V89.8
	l0,0v-5.91l0,0v-6.09l0,0V71.9l0,0v-5.91l0,0v-6.09l0,0V54l0,0v-5.91l0,0v-6.09l0,0V36.1l0,0v-5.91l0,0v-6.09l0,0V18.2l0,0v-5.91
	l0,0V6.21l0,0V0.3l0,0H44.86z"/>
<path class="st11" d="M20.24,0.3H5.55v5.91h31.97v6.09h-1.84v5.91H20.24v5.91h-5.51v6.09h21.31v5.91H6.65v5.91h16.9v6.09h4.41V54
	h-5.14v5.91h15.43v6.09H18.04v5.91h8.45v5.91h-14.7v6.09H32v5.91H16.57v5.91h5.14v6.09h2.57v5.91H-0.7v-5.91l0,0v-6.09l0,0V89.8l0,0
	v-5.91l0,0v-6.09l0,0V71.9l0,0v-5.91l0,0v-6.09l0,0V54l0,0v-5.91l0,0v-6.09l0,0V36.1l0,0v-5.91l0,0v-6.09l0,0V18.2l0,0v-5.91l0,0
	V6.21l0,0V0.3l0,0H20.24z"/>
<path class="st12" d="M30.17,0.3h2.2v5.91H21.71v6.09H7.38v5.91h16.9v5.91h3.31v6.09h-2.57v5.91H9.96v5.91h13.6v6.09H4.81V54h11.76
	v5.91h13.6v6.09H16.2v5.91h13.6v5.91H14.37v6.09H7.02v5.91h24.62v5.91H8.49v6.09h15.8v5.91H-0.7v-5.91l0,0v-6.09l0,0V89.8l0,0v-5.91
	l0,0v-6.09l0,0V71.9l0,0v-5.91l0,0v-6.09l0,0V54l0,0v-5.91l0,0v-6.09l0,0V36.1l0,0v-5.91l0,0v-6.09l0,0V18.2l0,0v-5.91l0,0V6.21l0,0
	V0.3l0,0H30.17z"/>
<path class="st13" d="M21.35,0.3h-8.08v5.91h3.67v6.09h6.61v5.91H5.91v5.91h0.37v6.09h3.67v5.91H8.49v5.91h11.76v6.09h0.37V54H5.18
	v5.91h-2.2v6.09h14.7v5.91h-4.04v5.91h-2.2v6.09h7.72v5.91H3.34v5.91h16.9v6.09H12.9v5.91H-0.7v-5.91l0,0v-6.09l0,0V89.8l0,0v-5.91
	l0,0v-6.09l0,0V71.9l0,0v-5.91l0,0v-6.09l0,0V54l0,0v-5.91l0,0v-6.09l0,0V36.1l0,0v-5.91l0,0v-6.09l0,0V18.2l0,0v-5.91l0,0V6.21l0,0
	V0.3l0,0H21.35z"/>
<path class="st14" d="M2.61,0.3h4.04v5.91h2.57v6.09h6.98v5.91h-2.94v5.91h-2.57v6.09h-0.37v5.91H8.49v5.91h3.31v6.09h3.67V54H5.91
	v5.91h12.86v6.09h-6.25v5.91H4.44v5.91h14.33v6.09H9.96v5.91H9.59v5.91h10.29v6.09H9.22v5.91H-0.7v-5.91l0,0v-6.09l0,0V89.8l0,0
	v-5.91l0,0v-6.09l0,0V71.9l0,0v-5.91l0,0v-6.09l0,0V54l0,0v-5.91l0,0v-6.09l0,0V36.1l0,0v-5.91l0,0v-6.09l0,0V18.2l0,0v-5.91l0,0
	V6.21l0,0V0.3l0,0H2.61z"/>
<path class="st15" d="M6.65,0.3h8.08v5.91H1.14v6.09h10.29v5.91h4.78v5.91h-3.67v6.09h3.67v5.91H6.65v5.91h4.41v6.09h5.14V54h-0.73
	v5.91H6.28v6.09h2.57v5.91H3.34v5.91H15.1v6.09H1.87v5.91h7.35v5.91H7.38v6.09h2.2v5.91H-0.7v-5.91l0,0v-6.09l0,0V89.8l0,0v-5.91
	l0,0v-6.09l0,0V71.9l0,0v-5.91l0,0v-6.09l0,0V54l0,0v-5.91l0,0v-6.09l0,0V36.1l0,0v-5.91l0,0v-6.09l0,0V18.2l0,0v-5.91l0,0V6.21l0,0
	V0.3l0,0H6.65z"/>
<path class="st16" d="M7.38,0.3h1.84v5.91H7.38v6.09H4.08v5.91h1.84v5.91H2.61v6.09h7.72v5.91H9.59v5.91H7.38v6.09H3.34V54h1.84
	v5.91h4.78v6.09H6.65v5.91h2.2v5.91H6.28v6.09H1.5v5.91h5.51v5.91H3.71v6.09h4.78v5.91H-0.7v-5.91l0,0v-6.09l0,0V89.8l0,0v-5.91l0,0
	v-6.09l0,0V71.9l0,0v-5.91l0,0v-6.09l0,0V54l0,0v-5.91l0,0v-6.09l0,0V36.1l0,0v-5.91l0,0v-6.09l0,0V18.2l0,0v-5.91l0,0V6.21l0,0V0.3
	l0,0H7.38z"/>
</svg>
