<?xml version="1.0" encoding="utf-8"?>
<!-- Generator: Adobe Illustrator 25.0.1, SVG Export Plug-In . SVG Version: 6.00 Build 0)  -->
<svg version="1.1" id="Слой_1" xmlns="http://www.w3.org/2000/svg" xmlns:xlink="http://www.w3.org/1999/xlink" x="0px" y="0px"
	 viewBox="0 0 8192 1080" style="enable-background:new 0 0 8192 1080;" xml:space="preserve">
<style type="text/css">
	.st0{fill:#6EE7B7;}
	.st1{fill:#65DEAE;}
	.st2{fill:#5BD5A5;}
	.st3{fill:#52CC9C;}
	.st4{fill:#48C293;}
	.st5{fill:#3EB98B;}
	.st6{fill:#33B082;}
	.st7{fill:#28A87A;}
	.st8{fill:#1A9F71;}
	.st9{fill:#059669;}
	.st10{fill:url(#SVGID_1_);}
	.st11{fill:url(#SVGID_2_);}
	.st12{fill:url(#SVGID_3_);}
	.st13{fill:url(#SVGID_4_);}
	.st14{fill:url(#SVGID_5_);}
	.st15{fill:url(#SVGID_6_);}
</style>
<path class="st0" d="M255.8,245.1h-40.2v32.4h53V311H73.1v32.4h148v32.4H116.9v33.4h47.5v32.4h18.3v32.4H71.2v33.4h36.5V540h3.7
	v32.4H91.3v33.4H56.6v32.4H221v32.4H71.2v33.4h237.5v32.4H113.3V769h53v33.4H53v32.4H0v-32.4l0,0V769l0,0v-32.4l0,0v-32.4l0,0v-33.4
	l0,0v-32.4l0,0v-32.4l0,0v-33.4l0,0V540l0,0v-32.4l0,0v-33.4l0,0v-32.4l0,0v-32.4l0,0v-33.4l0,0v-32.4l0,0V311l0,0v-33.4l0,0v-32.4
	l0,0H255.8z"/>
<path class="st1" d="M127.9,245.1h65.8v32.4h43.8V311h-36.5v32.4H84v32.4h162.6v33.4H63.9v32.4h40.2v32.4H76.7v33.4h56.6V540H60.3
	v32.4h74.9v33.4h49.3v32.4h-106v32.4h31.1v33.4H62.1v32.4h84V769h-38.4v33.4h38.4v32.4H0v-32.4l0,0V769l0,0v-32.4l0,0v-32.4l0,0
	v-33.4l0,0v-32.4l0,0v-32.4l0,0v-33.4l0,0V540l0,0v-32.4l0,0v-33.4l0,0v-32.4l0,0v-32.4l0,0v-33.4l0,0v-32.4l0,0V311l0,0v-33.4l0,0
	v-32.4l0,0H127.9z"/>
<path class="st2" d="M237.5,245.1h-74.9v32.4h93.2V311h-73.1v32.4h-82.2v32.4H243v33.4H36.5v32.4h138.8v32.4h38.4v33.4h-27.4V540
	h-20.1v32.4H62.1v33.4h151.6v32.4h34.7v32.4H201v33.4h16.4v32.4h32.9V769H116.9v33.4h133.4v32.4H0v-32.4l0,0V769l0,0v-32.4l0,0
	v-32.4l0,0v-33.4l0,0v-32.4l0,0v-32.4l0,0v-33.4l0,0V540l0,0v-32.4l0,0v-33.4l0,0v-32.4l0,0v-32.4l0,0v-33.4l0,0v-32.4l0,0V311l0,0
	v-33.4l0,0v-32.4l0,0H237.5z"/>
<path class="st3" d="M226.5,245.1H179v32.4H42V311h11v32.4h67.6v32.4h-3.7v33.4H95v32.4H69.4v32.4h146.1v33.4H100.5V540h69.4v32.4
	H87.7v33.4h5.5v32.4h62.1v32.4h-84v33.4H58.5v32.4h113.3V769h-25.6v33.4H45.7v32.4H0v-32.4l0,0V769l0,0v-32.4l0,0v-32.4l0,0v-33.4
	l0,0v-32.4l0,0v-32.4l0,0v-33.4l0,0V540l0,0v-32.4l0,0v-33.4l0,0v-32.4l0,0v-32.4l0,0v-33.4l0,0v-32.4l0,0V311l0,0v-33.4l0,0v-32.4
	l0,0H226.5z"/>
<path class="st4" d="M104.1,245.1H31.1v32.4H190V311h-9.1v32.4h-76.7v32.4H76.7v33.4h106v32.4H36.5v32.4h84v33.4h21.9V540h-25.6
	v32.4h76.7v33.4H93.2v32.4h42v32.4H62.1v33.4h100.5v32.4H85.9V769h25.6v33.4h12.8v32.4H0v-32.4l0,0V769l0,0v-32.4l0,0v-32.4l0,0
	v-33.4l0,0v-32.4l0,0v-32.4l0,0v-33.4l0,0V540l0,0v-32.4l0,0v-33.4l0,0v-32.4l0,0v-32.4l0,0v-33.4l0,0v-32.4l0,0V311l0,0v-33.4l0,0
	v-32.4l0,0H104.1z"/>
<path class="st5" d="M153.5,245.1h11v32.4h-53V311H40.2v32.4h84v32.4h16.4v33.4h-12.8v32.4H53v32.4h67.6v33.4H27.4V540h58.5v32.4
	h67.6v33.4H84v32.4h67.6v32.4H74.9v33.4H38.4v32.4h122.4V769H45.7v33.4h78.6v32.4H0v-32.4l0,0V769l0,0v-32.4l0,0v-32.4l0,0v-33.4
	l0,0v-32.4l0,0v-32.4l0,0v-33.4l0,0V540l0,0v-32.4l0,0v-33.4l0,0v-32.4l0,0v-32.4l0,0v-33.4l0,0v-32.4l0,0V311l0,0v-33.4l0,0v-32.4
	l0,0H153.5z"/>
<path class="st6" d="M109.6,245.1H69.4v32.4h18.3V311h32.9v32.4H32.9v32.4h1.8v33.4H53v32.4h-7.3v32.4h58.5v33.4h1.8V540H29.2v32.4
	h-11v33.4h73.1v32.4H71.2v32.4h-11v33.4h38.4v32.4H20.1V769h84v33.4H67.6v32.4H0v-32.4l0,0V769l0,0v-32.4l0,0v-32.4l0,0v-33.4l0,0
	v-32.4l0,0v-32.4l0,0v-33.4l0,0V540l0,0v-32.4l0,0v-33.4l0,0v-32.4l0,0v-32.4l0,0v-33.4l0,0v-32.4l0,0V311l0,0v-33.4l0,0v-32.4l0,0
	H109.6z"/>
<path class="st7" d="M16.4,245.1h20.1v32.4h12.8V311H84v32.4H69.4v32.4H56.6v33.4h-1.8v32.4h-9.1v32.4h16.4v33.4h18.3V540H32.9v32.4
	h63.9v33.4H65.8v32.4H25.6v32.4h71.2v33.4H53v32.4h-1.8V769h51.2v33.4h-53v32.4H0v-32.4l0,0V769l0,0v-32.4l0,0v-32.4l0,0v-33.4l0,0
	v-32.4l0,0v-32.4l0,0v-33.4l0,0V540l0,0v-32.4l0,0v-33.4l0,0v-32.4l0,0v-32.4l0,0v-33.4l0,0v-32.4l0,0V311l0,0v-33.4l0,0v-32.4l0,0
	H16.4z"/>
<path class="st8" d="M36.5,245.1h40.2v32.4H9.1V311h51.2v32.4H84v32.4H65.8v33.4H84v32.4H36.5v32.4h21.9v33.4H84V540h-3.7v32.4H34.7
	v33.4h12.8v32.4H20.1v32.4h58.5v33.4H12.8v32.4h36.5V769h-9.1v33.4h11v32.4H0v-32.4l0,0V769l0,0v-32.4l0,0v-32.4l0,0v-33.4l0,0
	v-32.4l0,0v-32.4l0,0v-33.4l0,0V540l0,0v-32.4l0,0v-33.4l0,0v-32.4l0,0v-32.4l0,0v-33.4l0,0v-32.4l0,0V311l0,0v-33.4l0,0v-32.4l0,0
	H36.5z"/>
<path class="st9" d="M40.2,245.1h9.1v32.4h-9.1V311H23.8v32.4h9.1v32.4H16.4v33.4h38.4v32.4h-3.7v32.4h-11v33.4H20.1V540h9.1v32.4
	H53v33.4H36.5v32.4h11v32.4H34.7v33.4H11v32.4h27.4V769H21.9v33.4h23.8v32.4H0v-32.4l0,0V769l0,0v-32.4l0,0v-32.4l0,0v-33.4l0,0
	v-32.4l0,0v-32.4l0,0v-33.4l0,0V540l0,0v-32.4l0,0v-33.4l0,0v-32.4l0,0v-32.4l0,0v-33.4l0,0v-32.4l0,0V311l0,0v-33.4l0,0v-32.4l0,0
	H40.2z"/>
<linearGradient id="SVGID_1_" gradientUnits="userSpaceOnUse" x1="-1052.4435" y1="472.5291" x2="11845.3164" y2="472.5291" gradientTransform="matrix(0.5461 0 0 -0.5461 1722.8778 1034.6133)">
	<stop  offset="0.1121" style="stop-color:#D1FAE5"/>
	<stop  offset="0.2827" style="stop-color:#FA7268"/>
	<stop  offset="0.7135" style="stop-color:#FA7268"/>
	<stop  offset="0.818" style="stop-color:#C0D9FE"/>
</linearGradient>
<path class="st10" d="M1148.1,725.2v109.7l2128.9,0.1l4915-0.1V725.2l-228.6,20.3l-240.3-18.6l-234.8,12l-233-7.6l-234.8-13.1
	l-233,34.4l-234.8-20.7l-413.7,16.5l-166.1,3.5l-179.5-11c-56,4.6-123.1,8.8-199.5,11c-97.7,2.8-183.6,1.6-252.3-0.7
	c-18.5-0.9-46.6-2.3-80.6-4.4l-245-11.2c-41.2-2.2-73.4-4.1-101.7-5.6l-21.2-1.1c-43.4-0.9-62.5-2.2-104.4-1.4
	c-41.9,0.8-83.7,3.5-126,8c-42.1,4.4-84.6,10.6-126.7,10.5c-42.3-0.1-84.1-6.4-126-7.5c-41.9-1.1-83.7,3.1-125.6,5.5
	c-41.9,2.3-83.7,2.9-126,2.8c-42.1-0.1-84.6-0.8-126.7-4.4c-42.1-3.7-83.9-10.2-125.8-11.4c-41.9-1.1-83.7,3-125.6,3
	s-83.7-4.1-126-2.9c-42.1,1.3-84.6,8-126.7,11.2c-42.3,3.2-84.1,2.8-126,0.1c-41.9-2.7-83.7-7.9-104.7-10.4l-19.6-2.3l-19.6,2.3
	c-20.9,2.5-62.8,7.6-104.7,10.4c-41.9,2.7-83.7,3.1-126-0.1c-42.1-3.2-84.7-9.9-126.7-11.2c-42.3-1.3-84.1,2.9-126,2.9
	s-83.7-4.1-125.6-3c-41.9,1.2-83.7,7.7-125.8,11.4c-42.1,3.6-84.7,4.4-126.7,4.4c-42.3,0.1-84.1-0.4-126-2.8
	c-41.9-2.4-83.7-6.5-125.6-5.5c-41.9,1.1-83.7,7.4-126,7.5c-42.1,0.1-84.7-6.1-126.7-10.5c-42.3-4.5-84.1-7.2-126-8
	c-41.9-0.8-61,0.5-104.4,1.4l-21.2,1.1c-28.3,1.5-60.6,3.4-101.7,5.6"/>
<linearGradient id="SVGID_2_" gradientUnits="userSpaceOnUse" x1="-1052.2335" y1="459.0941" x2="11845.3164" y2="459.0941" gradientTransform="matrix(0.5461 0 0 -0.5461 1722.8778 1034.6133)">
	<stop  offset="0.1109" style="stop-color:#D1FAE5"/>
	<stop  offset="0.2848" style="stop-color:#F16367"/>
	<stop  offset="0.7173" style="stop-color:#F16367"/>
	<stop  offset="0.8187" style="stop-color:#A6C8FE"/>
</linearGradient>
<path class="st11" d="M1148.2,738.4v96.5l2128.9,0v-0.1l4914.9,0v-96.5l-235.2,20.2l-233-15.8l-234.8-9.8l-233,15.8l-234.8,19.1
	l-233-17.5l-234.8,4.9l-236.7,8.7l-320-9.5l-127,7.4c0,0-140.5-5.6-222.3-5.9c-81.8-0.4-157.6,11-210,21.6
	c-52.5,10.6-239.4-17.2-239.4-17.2s-189.3-15.7-218.5-16.5c-29.3-0.7-64.1,4.9-64.1,4.9l-20.9,2.9c-20.9,2.9-62.8,8.7-104.7,7.9
	c-41.9-0.9-83.7-8.6-126-13.3c-42.1-4.7-84.6-6.5-126.7-4.4c-42.3,2.2-84.1,8.4-126,12.4c-41.9,4-83.7,5.8-125.6,2.8
	c-41.9-3-83.7-10.9-126-10.6c-42.1,0.3-84.6,8.7-126.7,10.1c-42.3,1.5-84.1-4-126-3.9c-41.9,0.1-83.7,5.7-125.6,8.2
	c-41.9,2.6-83.7,2-126,0.2c-42.1-1.9-84.6-4.9-126.7-6c-42.3-1.1-84.1-0.2-126,1.1c-41.9,1.3-83.7,2.9-104.7,3.7l-20.4,0.8v0
	l-20.3-0.8c-20.9-0.8-62.8-2.5-104.7-3.7c-41.9-1.3-83.7-2.2-126-1.1c-42.1,1.1-84.7,4.1-126.7,6c-42.3,1.8-84.1,2.3-126-0.2
	c-41.9-2.5-83.7-8.2-125.6-8.2c-41.9-0.1-83.7,5.3-126,3.9c-42.1-1.4-84.7-9.8-126.7-10.1c-42.3-0.3-84.1,7.6-126,10.6
	c-41.9,3-83.7,1.1-125.6-2.8c-41.9-4-83.7-10.2-126-12.4c-42.1-2.2-84.7-0.3-126.7,4.4c-42.3,4.7-84.1,12.4-126,13.3
	c-41.9,0.9-83.7-4.9-104.7-7.9l-20.9-2.9c0,0-34.8-5.6-64.1-4.9c-29.2,0.8-218.5,16.5-218.5,16.5"/>
<linearGradient id="SVGID_3_" gradientUnits="userSpaceOnUse" x1="-1053.1835" y1="444.6141" x2="11845.3164" y2="444.6141" gradientTransform="matrix(0.5461 0 0 -0.5461 1722.8778 1034.6133)">
	<stop  offset="0.1114" style="stop-color:#D1FAE5"/>
	<stop  offset="0.2853" style="stop-color:#E85467"/>
	<stop  offset="0.7171" style="stop-color:#E85467"/>
	<stop  offset="0.8192" style="stop-color:#8CB7FD"/>
</linearGradient>
<path class="st12" d="M1147.7,753v81.8l2129.1,0.1l4915.2-0.1V753l-186.7,8.3l-241.1,16l-242.9-21l-241.1,22.7l-242.9-30.4
	l-241.1,14.9l-242.9-5.6l-185.4,17.2L6032,789.4c0,0-233.2-12.9-302.8-9c-69.6,3.9-269.9-7-338.3-16.4
	c-68.4-9.3-152.6,5.8-205.1,13.6c-52.5,7.7-111.1-10.6-150.2-4.4c-38,6.2-116,4-120.2,3.9l-20.9-0.4c-20.9-0.5-62.8-1.4-104.7-4.7
	c-41.9-3.4-83.7-9.2-126-10.4c-42.1-1.2-84.6,2.3-126.7,3.7c-42.3,1.5-84.1,0.9-126-0.3c-41.9-1.1-83.7-3-125.6-0.7
	c-41.9,2.3-83.7,8.6-126,8.8c-42.1,0.2-84.6-5.8-126.7-6.2c-42.3-0.3-84.1,4.9-126,7.6c-41.9,2.6-83.7,2.6-125.6-0.9
	c-41.9-3.5-83.7-10.6-126-13.5c-42.1-2.8-84.6-1.4-126.7,1.6c-42.3,2.9-84.1,7.3-126,7.8c-41.9,0.5-83.7-2.7-104.7-4.4l-20.9-1.6
	l-20.9,1.6c-20.9,1.6-62.8,4.9-104.7,4.4c-41.9-0.5-83.7-4.9-126-7.8c-42.1-2.9-84.7-4.4-126.7-1.6c-42.3,2.8-84.1,9.9-126,13.5
	c-41.9,3.5-83.7,3.5-125.6,0.9c-41.9-2.7-83.7-7.9-126-7.6c-42.1,0.4-84.7,6.4-126.7,6.2c-42.3-0.2-84.1-6.5-126-8.8
	c-41.9-2.3-83.7-0.4-125.6,0.7c-41.9,1.2-83.7,1.7-126,0.3c-42.1-1.4-84.7-4.9-126.7-3.7c-42.3,1.2-84.1,7-126,10.4
	c-41.9,3.4-83.7,4.3-104.7,4.7l-20.9,0.4c-4.2,0.1-82.2,2.3-120.2-3.9c-39-6.3-97.7,12.1-150.2,4.4"/>
<linearGradient id="SVGID_4_" gradientUnits="userSpaceOnUse" x1="-1052.4435" y1="427.3841" x2="11845.3164" y2="427.3841" gradientTransform="matrix(0.5461 0 0 -0.5461 1722.8778 1034.6133)">
	<stop  offset="0.1093" style="stop-color:#D1FAE5"/>
	<stop  offset="0.2894" style="stop-color:#DE4467"/>
	<stop  offset="0.7182" style="stop-color:#DE4467"/>
	<stop  offset="0.8186" style="stop-color:#72A6FB"/>
</linearGradient>
<path class="st13" d="M1148.1,767.5v67.4H3277h4915v-67.4l-236.7,8.9l-233,7.6l-234.8-9.3l-233,14.2l-234.8,5.5l-233-8.7l-234.8,0.5
	l-341.7,4.3l-263.8-19c-65.9,2-131.9,3.9-197.8,5.8c-9.4-0.8-23.8-1.7-41.6-2.3c-98.8-3.2-133.5,12.4-221.1,11.8
	c-60.1-0.4-54.2-8.1-128.2-8.8c-35.3-0.3-69.6,1.5-136.7,5.1c-62.2,3.3-74.5,4.8-98.9,6c-47.3,2.3-114.9,3-206.7-7.7l-20.9-2.1
	c-20.9-1.6-62.8-4.6-104.7-3c-41.9,1.6-83.7,8-126,8.3c-42.1,0.4-84.6-5.3-126.7-5.2c-42.3,0.1-84.1,5.9-126,9.1
	c-41.9,3.2-83.7,3.7-125.6,4.4c-41.9,0.6-83.7,1.4-126-0.3c-42.1-1.6-84.6-5.7-126.7-9.4c-42.3-3.7-84.1-7.2-126-8.9
	c-41.9-1.7-83.7-1.7-125.6,0.5c-41.9,2.2-83.7,6.8-126,7.6c-42.1,0.8-84.6-2.1-126.7-3.9c-42.3-1.8-84.1-2.6-126-0.3
	c-41.9,2.3-83.7,7.5-104.7,10.2l-20.6,2.6l-20.6-2.6c-20.9-2.7-62.8-7.9-104.7-10.2c-41.9-2.3-83.7-1.5-126,0.3
	c-42.1,1.8-84.7,4.7-126.7,3.9c-42.3-0.8-84.1-5.4-126-7.6c-41.9-2.3-83.7-2.3-125.6-0.5c-41.9,1.7-83.7,5.2-126,8.9
	c-42.1,3.7-84.7,7.7-126.7,9.4c-42.3,1.6-84.1,0.9-126,0.3c-41.9-0.7-83.7-1.2-125.6-4.4c-41.9-3.2-83.7-9-126-9.1
	c-42.1-0.1-84.7,5.6-126.7,5.2c-42.3-0.4-84.1-6.7-126-8.3c-41.9-1.6-83.7,1.4-104.7,3l-20.9,2.1c-91.8,10.7-159.4,10-206.7,7.7
	c-24.4-1.2-36.7-2.7-98.9-6"/>
<linearGradient id="SVGID_5_" gradientUnits="userSpaceOnUse" x1="-1052.4235" y1="412.8718" x2="11845.3164" y2="412.8718" gradientTransform="matrix(0.5461 0 0 -0.5461 1722.8778 1034.6133)">
	<stop  offset="0.1088" style="stop-color:#D1FAE5"/>
	<stop  offset="0.2915" style="stop-color:#D23467"/>
	<stop  offset="0.7182" style="stop-color:#D23467"/>
	<stop  offset="0.8186" style="stop-color:#5894F9"/>
</linearGradient>
<path class="st14" d="M1148.1,808.3v26.6l2128.9,0l4915,0v-26.6l-235.4,2.1l-233-20.2l-234.8,12l-233-8.7l-234.8-7.1l-233,1.6
	l-234.7,21.8v-0.1c-49.2-4.7-98.4-9.5-147.5-14.3c-25.3,1.7-59.9,3.9-101.3,5.7c-26.2,1.1-73.7,3.3-119.7,3.7
	c-54.4,0.4-50.4-2.1-218.5-9.4c-87.4-3.8-116.4-4.4-147.8-4.1c-15.6,0.1-29.9,0.4-52.5,0c-55-1-94.5-5.1-104.6-6.1
	c-63-5.9-130.1,2.9-250.8,8.3c-167.8,7.5-202.2-2.3-400.5,7.5c-40.5,2-31.2,2.9-52.7,4.4l-41.9,1.6l-20.9,0.4
	c-20.9,0.3-62.8,1.1-104.7-0.8c-41.9-1.9-83.7-6.5-126-8.4c-42.1-1.9-84.6-1.1-126.7,1c-42.3,2.2-84.1,5.8-126,6.6
	c-41.9,0.8-83.7-1.1-125.6-2.6c-41.9-1.5-83.7-2.3-126-1.3c-42.1,1.1-84.6,4.1-126.7,5.8c-42.3,1.6-84.1,1.9-126,0.8
	c-41.9-1-83.7-3.2-125.6-5.6s-83.7-5.2-126-5.6c-42.1-0.5-84.6,1.4-126.7,3.3c-42.3,2-84.1,4.2-126,3.8
	c-41.9-0.3-83.7-3.3-104.7-4.7l-20.6-1.5l-20.6,1.5c-20.9,1.4-62.8,4.4-104.7,4.7c-41.9,0.4-83.7-1.8-126-3.8
	c-42.1-2-84.7-3.8-126.7-3.3c-42.3,0.4-84.1,3.2-126,5.6c-41.9,2.5-83.7,4.6-125.6,5.6c-41.9,1-83.7,0.8-126-0.8
	c-42.1-1.6-84.7-4.7-126.7-5.8c-42.3-1.1-84.1-0.2-126,1.3c-41.9,1.5-83.7,3.4-125.6,2.6c-41.9-0.8-83.7-4.4-126-6.6
	c-42.1-2.2-84.7-2.9-126.7-1c-42.3,1.9-84.1,6.5-126,8.4c-41.9,1.9-83.7,1.1-104.7,0.8l-20.9-0.4l-41.9-1.6
	c-21.4-1.5-12.2-2.3-52.7-4.4"/>
<linearGradient id="SVGID_6_" gradientUnits="userSpaceOnUse" x1="-1052.8036" y1="396.5741" x2="11845.3164" y2="396.5741" gradientTransform="matrix(0.5461 0 0 -0.5461 1722.8778 1034.6133)">
	<stop  offset="0.1089" style="stop-color:#D1FAE5"/>
	<stop  offset="0.2911" style="stop-color:#C62368"/>
	<stop  offset="0.7199" style="stop-color:#C62368"/>
	<stop  offset="0.8186" style="stop-color:#3B82F6"/>
</linearGradient>
<path class="st15" d="M1147.9,818.1v16.8l2129,0l4915.1,0v-16.8l-234.8-0.7l-233-9.8l-234.8,11.5l-233,4.4l-234.8-13.6l-233,10.4
	l-234.8-2.2v0.1l-385.5-16.9l-343.2,3c0,0-168.6,6.7-201.6,8.9c-33,2.3-178.4-5.8-243.1,0s-223.6,9.5-267.5,5.8
	c-43.6-3.7-166.5-3.1-182.8-3.7l-35.3-1.1c-20.9-1.1-62.8-3.3-104.7-4.8c-41.9-1.6-83.7-2.5-126-0.5c-42.1,2-84.6,6.9-126.7,8.7
	c-42.3,1.9-84.1,0.5-126-1.4c-41.9-1.9-83.7-4.4-125.6-4.4c-41.9,0.1-83.7,2.8-126,3.7c-42.1,0.8-84.6-0.3-126.7-1.5
	c-42.3-1.1-84.1-2.5-126-1.1c-41.9,1.3-83.7,5.1-125.6,6.2s-83.7-0.5-126-2.6c-42.1-2.1-84.6-4.6-126.7-4.9
	c-42.3-0.2-84.1,2-126,3.7c-41.9,1.6-83.7,2.7-104.7,3.3l-20.9,0.5l-20.9-0.5c-20.9-0.5-62.8-1.6-104.7-3.3s-83.7-3.8-126-3.7
	c-42.1,0.2-84.7,2.7-126.7,4.9c-42.3,2.1-84.1,3.7-126,2.6s-83.7-4.9-125.6-6.2c-41.9-1.3-83.7,0-126,1.1
	c-42.1,1.2-84.7,2.3-126.7,1.5c-42.3-0.8-84.1-3.5-126-3.7c-41.9-0.1-83.7,2.5-125.6,4.4c-41.9,1.9-83.7,3.2-126,1.4
	c-42.1-1.8-84.7-6.7-126.7-8.7c-42.3-2-84.1-1.1-126,0.5c-41.9,1.5-83.7,3.7-104.7,4.8l-35.3,1.1c-16.4,0.5-139.3,0-182.8,3.7"/>
</svg>
