<?xml version="1.0" encoding="utf-8"?>
<!-- Generator: Adobe Illustrator 25.0.0, SVG Export Plug-In . SVG Version: 6.00 Build 0)  -->
<svg version="1.1" id="Слой_1" xmlns="http://www.w3.org/2000/svg" xmlns:xlink="http://www.w3.org/1999/xlink" x="0px" y="0px"
	 viewBox="0 0 9000 1080" style="enable-background:new 0 0 9000 1080;" xml:space="preserve">
<style type="text/css">
	.st0{fill:url(#SVGID_1_);}
	.st1{fill:url(#SVGID_2_);}
	.st2{fill:url(#SVGID_3_);}
	.st3{fill:url(#SVGID_4_);}
	.st4{fill:url(#SVGID_5_);}
	.st5{fill:url(#SVGID_6_);}
	.st6{fill:url(#SVGID_7_);}
</style>
<linearGradient id="SVGID_1_" gradientUnits="userSpaceOnUse" x1="0.3071" y1="537.8465" x2="9887.5967" y2="537.8465" gradientTransform="matrix(0.9102 0 0 0.9102 0.0898 50.3902)">
	<stop  offset="0.4646" style="stop-color:#FEE2E2"/>
	<stop  offset="0.5808" style="stop-color:#DBEAFE"/>
</linearGradient>
<rect x="0.37" y="0" class="st0" width="8999.63" height="1079.9"/>
<linearGradient id="SVGID_2_" gradientUnits="userSpaceOnUse" x1="0.3074" y1="1013.7615" x2="9887.5967" y2="1013.7615" gradientTransform="matrix(0.9102 0 0 0.9102 0.0898 50.3902)">
	<stop  offset="0.4541" style="stop-color:#FA7268"/>
	<stop  offset="0.5623" style="stop-color:#C0D9FE"/>
</linearGradient>
<path class="st1" d="M9000,1079.9V879.06l-418.5,37.25l-439.98-34.06l-429.98,21.97l-426.65-13.98l-429.98-23.97l-426.65,62.92
	l-429.98-37.95l-757.56,30.26L4936.66,928l-328.69-20.17c-102.59,8.39-225.36,16.08-365.36,20.17c-178.88,5.19-336.1,3-462.02-1.3
	c-33.89-1.6-85.37-4.19-147.59-7.99l-448.69-20.57c-75.37-3.99-134.44-7.49-186.29-10.19l-38.89-2c-79.44-1.7-114.44-4.09-191.1-2.6
	c-76.66,1.5-153.33,6.49-230.73,14.68c-77.03,8.09-154.99,19.47-232.03,19.28c-77.4-0.2-154.07-11.78-230.73-13.78
	c-76.66-2-153.33,5.59-229.99,9.99c-76.66,4.29-153.33,5.29-230.73,5.09c-77.03-0.1-154.99-1.5-232.03-8.09
	c-77.03-6.69-153.7-18.68-230.36-20.87c-76.66-2.1-153.33,5.49-229.99,5.49s-153.33-7.59-230.73-5.29
	c-77.03,2.3-154.99,14.68-232.03,20.47c-77.4,5.79-154.07,5.19-230.73,0.2S74.62,896.14,36.29,891.54l-35.92-4.29V1080"/>
<linearGradient id="SVGID_3_" gradientUnits="userSpaceOnUse" x1="0.3191" y1="1028.4641" x2="9887.5967" y2="1028.4641" gradientTransform="matrix(0.9102 0 0 0.9102 0.0898 50.3902)">
	<stop  offset="0.39" style="stop-color:#F16367"/>
	<stop  offset="0.5821" style="stop-color:#A6C8FE"/>
</linearGradient>
<path class="st2" d="M9000,1079.9V903.13l-430.72,36.95l-426.65-28.96l-429.98-17.98L7286,922.1l-429.98,34.95l-426.65-31.96
	l-429.98,8.99l-433.5,15.88l-585.9-17.38l-232.58,13.58c0,0-257.21-10.19-407.02-10.89s-288.51,20.07-384.61,39.55
	c-96.11,19.47-438.32-31.46-438.32-31.46s-346.65-28.76-400.17-30.16c-53.7-1.3-117.4,8.99-117.4,8.99l-38.33,5.29
	c-38.33,5.39-115,15.98-191.66,14.38c-76.66-1.7-153.33-15.68-230.73-24.37c-77.03-8.59-154.99-11.98-232.03-7.99
	c-77.4,3.99-154.07,15.38-230.73,22.67c-76.66,7.29-153.33,10.69-229.99,5.19c-76.66-5.49-153.33-19.87-230.73-19.37
	c-77.03,0.5-154.99,15.88-232.03,18.48c-77.4,2.7-154.07-7.29-230.73-7.09c-76.66,0.1-153.33,10.49-229.99,15.08
	c-76.66,4.69-153.33,3.7-230.73,0.4c-77.03-3.4-154.99-8.99-232.03-10.99c-77.4-2-154.07-0.4-230.73,2
	c-76.66,2.3-153.33,5.29-191.66,6.79l-37.41,1.4v135.82"/>
<linearGradient id="SVGID_4_" gradientUnits="userSpaceOnUse" x1="-0.0986" y1="1044.4285" x2="9887.5967" y2="1044.4285" gradientTransform="matrix(0.9102 0 0 0.9102 0.0898 50.3902)">
	<stop  offset="0.4519" style="stop-color:#E85467"/>
	<stop  offset="0.586" style="stop-color:#8CB7FD"/>
</linearGradient>
<path class="st3" d="M9000,1079.9V930.09l-341.84,15.18l-441.46,29.36l-444.8-38.45l-441.46,41.55l-444.8-55.63l-441.46,27.36
	l-444.8-10.29l-339.43,31.46l-614.97,25.97c0,0-427.02-23.67-554.42-16.48c-127.4,7.19-494.24-12.88-619.42-29.96
	c-125.18-17.08-279.43,10.69-375.54,24.87c-96.11,14.18-203.51-19.47-274.99-7.99c-69.63,11.29-212.4,7.29-220.18,7.09l0,0
	l-38.33-0.8c-38.33-0.9-115-2.5-191.66-8.69c-76.66-6.19-153.33-16.78-230.73-18.98c-77.03-2.2-154.99,4.19-232.03,6.79
	c-77.4,2.7-154.07,1.7-230.73-0.5c-76.66-2.1-153.33-5.49-229.99-1.3s-153.33,15.78-230.73,16.18
	c-77.03,0.3-154.99-10.69-232.03-11.39c-77.4-0.6-154.07,8.99-230.73,13.88c-76.66,4.79-153.33,4.79-229.99-1.7
	c-76.66-6.49-153.33-19.47-230.73-24.67c-77.03-5.09-154.99-2.5-232.03,2.9c-77.4,5.29-154.07,13.28-230.73,14.28
	c-76.66,1-153.33-4.99-191.66-7.99l-38.33-3V1080"/>
<linearGradient id="SVGID_5_" gradientUnits="userSpaceOnUse" x1="0.3071" y1="1063.2457" x2="9887.5967" y2="1063.2457" gradientTransform="matrix(0.9102 0 0 0.9102 0.0898 50.3902)">
	<stop  offset="0.3926" style="stop-color:#DE4467"/>
	<stop  offset="0.5761" style="stop-color:#72A6FB"/>
</linearGradient>
<path class="st4" d="M9000,1079.9V956.46l-433.32,16.38l-426.65,13.98l-429.98-16.98l-426.65,25.97l-429.98,9.99l-426.65-15.98
	l-429.98,1l-625.71,7.89l-482.94-34.85c-120.74,3.6-241.47,7.19-362.21,10.69c-17.22-1.4-43.52-3.2-76.11-4.29
	c-180.92-5.79-244.43,22.77-404.8,21.67c-110-0.7-99.26-14.88-234.81-16.08c-64.63-0.6-127.4,2.8-250.36,9.39
	c-113.88,6.09-136.48,8.79-181.1,10.99c-86.66,4.19-210.36,5.49-378.5-14.18l-38.33-3.8c-38.33-2.9-115-8.49-191.66-5.49
	c-76.66,3-153.33,14.58-230.73,15.28c-77.03,0.7-154.99-9.69-232.03-9.49c-77.4,0.2-154.07,10.79-230.73,16.68
	c-76.66,5.79-153.33,6.79-229.99,7.99c-76.66,1.1-153.33,2.5-230.73-0.5c-77.03-3-154.99-10.39-232.03-17.18
	c-77.4-6.79-154.07-13.18-230.73-16.28c-76.66-3.2-153.33-3.2-229.99,1c-76.66,4.09-153.33,12.48-230.73,13.98
	c-77.03,1.5-154.99-3.89-232.03-7.19c-77.4-3.3-154.07-4.69-230.73-0.5S76.48,990.32,38.15,995.21L0.37,1000v79.9"/>
<linearGradient id="SVGID_6_" gradientUnits="userSpaceOnUse" x1="0.3192" y1="1079.1948" x2="9887.5967" y2="1079.1948" gradientTransform="matrix(0.9102 0 0 0.9102 0.0898 50.3902)">
	<stop  offset="0.4265" style="stop-color:#D23467"/>
	<stop  offset="0.5825" style="stop-color:#5894F9"/>
</linearGradient>
<path class="st5" d="M9000,1079.9v-48.64l-431.09,3.89l-426.65-36.95l-429.98,21.97l-426.65-15.98l-429.98-12.98l-426.65,3
	l-429.8,39.95v-0.2c-90-8.69-180.18-17.48-270.17-26.17c-46.29,3.2-109.62,7.19-185.55,10.49c-47.96,2.1-134.99,5.99-219.25,6.69
	c-99.63,0.8-92.22-3.8-400.17-17.18c-159.99-6.99-213.14-7.99-270.54-7.59c-28.52,0.2-54.81,0.8-96.11,0
	c-100.74-1.9-172.96-9.39-191.47-11.09c-115.37-10.89-238.14,5.29-459.24,15.18c-307.21,13.68-370.17-4.29-733.3,13.68
	c-74.07,3.7-57.22,5.29-96.48,7.99l-76.66,3l-38.33,0.7c-38.33,0.6-115,2-191.66-1.5c-76.66-3.5-153.33-11.88-230.73-15.38
	c-77.03-3.5-154.99-2.1-232.03,1.9c-77.4,3.99-154.07,10.59-230.73,12.08c-76.66,1.5-153.33-2.1-229.99-4.79
	c-76.66-2.7-153.33-4.29-230.73-2.3c-77.03,2-154.99,7.59-232.03,10.59c-77.4,3-154.07,3.4-230.73,1.5
	c-76.66-1.8-153.33-5.79-229.99-10.29s-153.33-9.49-230.73-10.29c-77.03-0.9-154.99,2.5-232.03,6.09
	c-77.4,3.7-154.07,7.69-230.73,6.99c-76.66-0.6-153.33-5.99-191.66-8.59l-37.78-2.7v66.91"/>
<linearGradient id="SVGID_7_" gradientUnits="userSpaceOnUse" x1="0.1098" y1="1097.0946" x2="9887.5967" y2="1097.0946" gradientTransform="matrix(0.9102 0 0 0.9102 0.0898 50.3902)">
	<stop  offset="0.3317" style="stop-color:#C62368"/>
	<stop  offset="0.667" style="stop-color:#3B82F6"/>
</linearGradient>
<path class="st6" d="M9000,1079.9v-30.76l-429.98-1.2l-426.65-17.98l-429.98,20.97l-426.65,7.99l-429.98-24.97l-426.65,18.98
	l-429.98-3.99v0.1l-705.9-30.96l-628.49,5.49c0,0-308.69,12.18-369.06,16.38c-60.37,4.19-326.65-10.69-445.17,0
	c-118.52,10.69-409.43,17.38-489.79,10.69c-79.81-6.69-304.8-5.69-334.8-6.69l-64.63-2c-38.33-2-115-5.99-191.66-8.79
	c-76.66-2.9-153.33-4.49-230.73-0.9c-77.03,3.7-154.99,12.68-232.03,15.98c-77.4,3.4-154.07,1-230.73-2.5
	c-76.66-3.5-153.33-8.09-229.99-7.99c-76.66,0.2-153.33,5.19-230.73,6.69c-77.03,1.5-154.99-0.5-232.03-2.7
	c-77.4-2.1-154.07-4.49-230.73-2.1c-76.66,2.3-153.33,9.29-229.99,11.29c-76.66,2-153.33-1-230.73-4.79
	c-77.03-3.9-154.99-8.49-232.03-8.89c-77.4-0.3-154.07,3.7-230.73,6.69s-153.33,4.99-191.66,5.99l-38.33,1v28.96"/>
</svg>
