<?xml version="1.0" encoding="utf-8"?>
<!-- Generator: Adobe Illustrator 25.0.0, SVG Export Plug-In . SVG Version: 6.00 Build 0)  -->
<svg version="1.1" id="visual" xmlns="http://www.w3.org/2000/svg" xmlns:xlink="http://www.w3.org/1999/xlink" x="0px" y="0px"
	 viewBox="0 0 900 600" style="enable-background:new 0 0 900 600;" xml:space="preserve">
<style type="text/css">
	.st0{fill:#FEF3F3;}
	.st1{fill:#FA7268;}
	.st2{fill:#F16367;}
	.st3{fill:#E85467;}
	.st4{fill:#DE4467;}
	.st5{fill:#D23467;}
	.st6{fill:#C62368;}
	.st7{fill:#DBEAFE;}
	.st8{fill:#C0D9FE;}
	.st9{fill:#A6C8FE;}
	.st10{fill:#8CB7FD;}
	.st11{fill:#72A6FB;}
	.st12{fill:#5894F9;}
	.st13{fill:#3B82F6;}
	.st14{fill:url(#SVGID_1_);}
	.st15{fill:url(#SVGID_2_);}
	.st16{fill:url(#SVGID_3_);}
	.st17{fill:url(#SVGID_4_);}
	.st18{fill:url(#SVGID_5_);}
	.st19{fill:url(#SVGID_6_);}
	.st20{fill:url(#SVGID_7_);}
	.st21{fill:url(#SVGID_8_);}
	.st22{fill:url(#SVGID_9_);}
	.st23{fill:url(#SVGID_10_);}
	.st24{fill:url(#SVGID_11_);}
</style>
<rect class="st0" width="900" height="600"/>
<path class="st1" d="M-0.1,404l11.5,4.7c11.5,4.6,34.5,14,57.5,19s46,5.6,69.2-0.2c23.1-5.8,46.5-18.2,69.6-20.5
	c23.2-2.3,46.2,5.3,69.2,5.3s46-7.6,69-5.5c23,2.2,46,14.2,69.2,20.9c23.1,6.6,46.5,8,69.6,8.1c23.2,0.2,46.2-0.8,69.2-5.1
	c23-4.4,46-12,69-10s46,13.6,69.2,13.8c23.1,0.2,46.5-11.2,69.6-19.3c23.2-8.2,46.2-13.2,69.2-14.7s46,0.5,57.5,1.5l11.5,1v197
	h-11.5c-11.5,0-34.5,0-57.5,0s-46,0-69.2,0c-23.1,0-46.5,0-69.6,0c-23.2,0-46.2,0-69.2,0s-46,0-69,0s-46,0-69.2,0
	c-23.1,0-46.5,0-69.6,0c-23.2,0-46.2,0-69.2,0s-46,0-69,0s-46,0-69.2,0c-23.1,0-46.5,0-69.6,0c-23.2,0-46.2,0-69.2,0s-46,0-57.5,0
	H-0.1V404z"/>
<path class="st2" d="M-0.1,464l11.5-1.5c11.5-1.5,34.5-4.5,57.5-6.8c23-2.4,46-4,69.2-2c23.1,2,46.5,7.6,69.6,11
	c23.2,3.3,46.2,4.3,69.2-0.4c23-4.6,46-15,69-15.1c23-0.2,46,9.8,69.2,7.1c23.1-2.6,46.5-18,69.6-18.5c23.2-0.5,46.2,13.9,69.2,19.4
	s46,2.1,69-5.2s46-18.7,69.2-22.7c23.1-4,46.5-0.6,69.6,8c23.2,8.7,46.2,22.7,69.2,24.4c23,1.6,46-9,57.5-14.4l11.5-5.3v158h-11.5
	c-11.5,0-34.5,0-57.5,0s-46,0-69.2,0c-23.1,0-46.5,0-69.6,0c-23.2,0-46.2,0-69.2,0s-46,0-69,0s-46,0-69.2,0c-23.1,0-46.5,0-69.6,0
	c-23.2,0-46.2,0-69.2,0s-46,0-69,0s-46,0-69.2,0c-23.1,0-46.5,0-69.6,0c-23.2,0-46.2,0-69.2,0s-46,0-57.5,0H-0.1V464z"/>
<path class="st3" d="M-0.1,469l11.5,3c11.5,3,34.5,9,57.5,8s46-9,69.2-14.3c23.1-5.4,46.5-8,69.6-2.9c23.2,5.2,46.2,18.2,69.2,24.7
	s46,6.5,69,1.7c23-4.9,46-14.5,69.2-13.9c23.1,0.7,46.5,11.7,69.6,11.4c23.2-0.4,46.2-12,69.2-16.2s46-0.8,69,1.3
	c23,2.2,46,3.2,69.2,0.5c23.1-2.6,46.5-9,69.6-6.8c23.2,2.2,46.2,12.8,69.2,19s46,7.8,57.5,8.7l11.5,0.8v106h-11.5
	c-11.5,0-34.5,0-57.5,0s-46,0-69.2,0c-23.1,0-46.5,0-69.6,0c-23.2,0-46.2,0-69.2,0s-46,0-69,0s-46,0-69.2,0c-23.1,0-46.5,0-69.6,0
	c-23.2,0-46.2,0-69.2,0s-46,0-69,0s-46,0-69.2,0c-23.1,0-46.5,0-69.6,0c-23.2,0-46.2,0-69.2,0s-46,0-57.5,0H-0.1V469z"/>
<path class="st4" d="M-0.1,520l11.5-4.8c11.5-4.9,34.5-14.5,57.5-18.7s46-2.8,69.2,0.5c23.1,3.3,46.5,8.7,69.6,7.2
	c23.2-1.5,46.2-9.9,69.2-14c23-4.2,46-4.2,69-1c23,3.1,46,9.5,69.2,16.3c23.1,6.8,46.5,14.2,69.6,17.2c23.2,3,46.2,1.6,69.2,0.5
	c23-1.2,46-2.2,69-8c23-5.9,46-16.5,69.2-16.7c23.1-0.2,46.5,10.2,69.6,9.5c23.2-0.7,46.2-12.3,69.2-15.3s46,2.6,57.5,5.5l11.5,2.8
	v99h-11.5c-11.5,0-34.5,0-57.5,0s-46,0-69.2,0c-23.1,0-46.5,0-69.6,0c-23.2,0-46.2,0-69.2,0s-46,0-69,0s-46,0-69.2,0
	c-23.1,0-46.5,0-69.6,0c-23.2,0-46.2,0-69.2,0s-46,0-69,0s-46,0-69.2,0c-23.1,0-46.5,0-69.6,0c-23.2,0-46.2,0-69.2,0s-46,0-57.5,0
	H-0.1V520z"/>
<path class="st5" d="M-0.1,532.2l11.5,2.7c11.5,2.6,34.5,8,57.5,8.6c23,0.7,46-3.3,69.2-7c23.1-3.6,46.5-7,69.6-6.1
	c23.2,0.8,46.2,5.8,69.2,10.3s46,8.5,69,10.3c23,1.9,46,1.5,69.2-1.5c23.1-3,46.5-8.6,69.6-10.6c23.2-2,46.2-0.4,69.2,2.3
	s46,6.3,69,4.8s46-8.1,69.2-12.1c23.1-4,46.5-5.4,69.6-1.9c23.2,3.5,46.2,11.9,69.2,15.4s46,2.1,57.5,1.5l11.5-0.7v51h-11.5
	c-11.5,0-34.5,0-57.5,0s-46,0-69.2,0c-23.1,0-46.5,0-69.6,0c-23.2,0-46.2,0-69.2,0s-46,0-69,0s-46,0-69.2,0c-23.1,0-46.5,0-69.6,0
	c-23.2,0-46.2,0-69.2,0s-46,0-69,0s-46,0-69.2,0c-23.1,0-46.5,0-69.6,0c-23.2,0-46.2,0-69.2,0s-46,0-57.5,0H-0.1V532.2z"/>
<path class="st6" d="M-0.1,570.2l11.5-1c11.5-1,34.5-3,57.5-6s46-7,69.2-6.7c23.1,0.4,46.5,5,69.6,8.9c23.2,3.8,46.2,6.8,69.2,4.8
	s46-9,69-11.3c23-2.4,46,0,69.2,2.1c23.1,2.2,46.5,4.2,69.6,2.7c23.2-1.5,46.2-6.5,69.2-6.7c23-0.1,46,4.5,69,8s46,5.9,69.2,2.5
	c23.1-3.3,46.5-12.3,69.6-16c23.2-3.6,46.2-2,69.2,0.9c23,2.8,46,6.8,57.5,8.8l11.5,2v36h-11.5c-11.5,0-34.5,0-57.5,0s-46,0-69.2,0
	c-23.1,0-46.5,0-69.6,0c-23.2,0-46.2,0-69.2,0s-46,0-69,0s-46,0-69.2,0c-23.1,0-46.5,0-69.6,0c-23.2,0-46.2,0-69.2,0s-46,0-69,0
	s-46,0-69.2,0c-23.1,0-46.5,0-69.6,0c-23.2,0-46.2,0-69.2,0s-46,0-57.5,0H-0.1V570.2z"/>
<rect x="899.9" class="st0" width="900" height="600"/>
<rect x="1799.8" y="-1" class="st7" width="900" height="600"/>
<path class="st7" d="M1799.8,435l129-58l128,3l129-29l128,61l129-54l128,46l129,15v181h-129h-128h-129h-128h-129h-128h-129V435z"/>
<path class="st8" d="M1799.8,411l129,38l128-63l129,24l128,14l129-22l128-21l129,1v218h-129h-128h-129h-128h-129h-128h-129V411z"/>
<path class="st9" d="M1799.8,454l129-9l128,32l129-35l128-29l129,18l128,29l129-32v172h-129h-128h-129h-128h-129h-128h-129V454z"/>
<path class="st10" d="M1799.8,459l129,12l128-27l129,55l128-41l129,38l128-29l129-14v147h-129h-128h-129h-128h-129h-128h-129V459z"
	/>
<path class="st11" d="M1799.8,511l129-1l128,16l129-10l128-26l129,17l128-14l129-17v124h-129h-128h-129h-128h-129h-128h-129V511z"/>
<path class="st12" d="M1799.8,554l129-40l128-3l129,13l128,16l129-22l128,37l129-4v49h-129h-128h-129h-128h-129h-128h-129V554z"/>
<path class="st13" d="M1799.8,569l129,4l128-19l129,25l128-8l129-21l128,18l129,1v31h-129h-128h-129h-128h-129h-128h-129V569z"/>
<linearGradient id="SVGID_1_" gradientUnits="userSpaceOnUse" x1="900" y1="299.5" x2="1799.7888" y2="299.5">
	<stop  offset="0.2524" style="stop-color:#FEF3F3"/>
	<stop  offset="0.7295" style="stop-color:#DBEAFE"/>
</linearGradient>
<polygon class="st14" points="1799.8,600 900,600 900,407.6 900,-1 1799.8,-1 "/>
<linearGradient id="SVGID_2_" gradientUnits="userSpaceOnUse" x1="899.8944" y1="501.5" x2="1799.7888" y2="501.5">
	<stop  offset="0.1742" style="stop-color:#FA7268"/>
	<stop  offset="0.8376" style="stop-color:#C0D9FE"/>
</linearGradient>
<path class="st15" d="M1134.5,446.5c37.8,4.4,84.9,6.5,138.6,1.3c42-4.1,78.8-11.7,109.6-20.2l98.6,20.2l91.2-6.5l227.3-30.3v189
	H900l-0.1-197c11.3,4.3,29.1,10.2,51.7,14.2c34.3,6,41.6,0.8,78.2,7.1c21.9,3.8,23.9,6.5,60.4,14.1
	C1108.9,442.3,1124.3,444.9,1134.5,446.5z"/>
<linearGradient id="SVGID_3_" gradientUnits="userSpaceOnUse" x1="899.8944" y1="516.4645" x2="1799.7888" y2="516.4645">
	<stop  offset="0.1742" style="stop-color:#F16367"/>
	<stop  offset="0.8376" style="stop-color:#A6C8FE"/>
</linearGradient>
<path class="st16" d="M899.9,442c0,0,19.2-10.3,35.3-9c16.1,1.3,120.1,30.2,120.1,30.2s102.6,51,131.5,31.5s70.4-40.2,115.4-39.6
	s122.1,10.9,122.1,10.9l69.8-13.6l175.8,17.4l130-15.9v146H900L899.9,442z"/>
<linearGradient id="SVGID_4_" gradientUnits="userSpaceOnUse" x1="899.8944" y1="529.5" x2="1799.7888" y2="529.5">
	<stop  offset="0.1742" style="stop-color:#E85467"/>
	<stop  offset="0.8376" style="stop-color:#8CB7FD"/>
</linearGradient>
<path class="st17" d="M899.9,494c0,0,44.7,4.5,66.2-7.1s53.7,22.1,82.5,8s75.2-42,112.7-24.9c37.5,17.1,147.6,37.3,185.8,30
	c38.2-7.2,166.4,16.5,166.4,16.5l184.5-26l101.9-31.5v141H900L899.9,494z"/>
<linearGradient id="SVGID_5_" gradientUnits="userSpaceOnUse" x1="899.8944" y1="542.0155" x2="1799.7888" y2="542.0155">
	<stop  offset="0.1742" style="stop-color:#DE4467"/>
	<stop  offset="0.8376" style="stop-color:#72A6FB"/>
</linearGradient>
<path class="st18" d="M899.9,501c50.5,19.7,88.5,19.6,114.5,15.5c13.4-2.1,20.2-4.8,54.3-11c36.9-6.6,55.7-9.9,75.1-9.4
	c40.7,1.2,37.4,15.4,70.4,16.1c48.1,1.1,67.1-27.5,121.4-21.7c9.7,1,17.6,2.9,22.8,4.3c36.2-3.6,72.4-7.2,108.7-10.7l144.9,34.9
	l187.7-7.9v89H900L899.9,501z"/>
<linearGradient id="SVGID_6_" gradientUnits="userSpaceOnUse" x1="1249.8323" y1="673.8696" x2="1249.8323" y2="673.8696">
	<stop  offset="0.1742" style="stop-color:#DE4467"/>
	<stop  offset="0.8376" style="stop-color:#72A6FB"/>
</linearGradient>
<path class="st19" d="M1249.8,673.9"/>
<linearGradient id="SVGID_7_" gradientUnits="userSpaceOnUse" x1="899.9472" y1="552.7548" x2="1799.8417" y2="552.7548">
	<stop  offset="0.1742" style="stop-color:#D23467"/>
	<stop  offset="0.8376" style="stop-color:#5894F9"/>
</linearGradient>
<path class="st20" d="M899.9,548.2c11.8-2.7,29.9-6.5,52.1-10.2c109-18,127.9-0.1,220-13.7c66.3-9.8,103.2-26,137.8-15.2
	c5.5,1.7,27.2,9.3,57.4,11.1c12.4,0.8,20.3,0.2,28.8,0c17.2-0.4,33.2,0.6,81.2,7.6c92.4,13.4,90.2,18,120,17.2
	c25.3-0.6,51.4-4.5,65.8-6.7c22.8-3.4,41.8-7.3,55.7-10.6c27,8.7,54,17.5,81.1,26.2v46H900.1L899.9,548.2z"/>
<linearGradient id="SVGID_8_" gradientUnits="userSpaceOnUse" x1="921.1367" y1="555.8074" x2="1761.6583" y2="555.8074">
	<stop  offset="0.1742" style="stop-color:#DE4467"/>
	<stop  offset="0.8376" style="stop-color:#72A6FB"/>
</linearGradient>
<path class="st21" d="M1761.7,557.1c-280.2-0.9-560.3-1.8-840.5-2.7"/>
<linearGradient id="SVGID_9_" gradientUnits="userSpaceOnUse" x1="1550.354" y1="700.7018" x2="1550.354" y2="700.7018">
	<stop  offset="0.1742" style="stop-color:#DE4467"/>
	<stop  offset="0.8376" style="stop-color:#72A6FB"/>
</linearGradient>
<path class="st22" d="M1550.4,700.7"/>
<linearGradient id="SVGID_10_" gradientUnits="userSpaceOnUse" x1="1078.7764" y1="696.677" x2="1078.7764" y2="696.677">
	<stop  offset="0.1742" style="stop-color:#D23467"/>
	<stop  offset="0.8376" style="stop-color:#5894F9"/>
</linearGradient>
<path class="st23" d="M1078.8,696.7"/>
<linearGradient id="SVGID_11_" gradientUnits="userSpaceOnUse" x1="899.8944" y1="569" x2="1799.8417" y2="569">
	<stop  offset="0.1742" style="stop-color:#C62368"/>
	<stop  offset="0.8376" style="stop-color:#3B82F6"/>
</linearGradient>
<path class="st24" d="M900.1,600l-0.2-36.8c0,0,84.3,0.6,108.4,7.3c24.1,6.7,111.4,0,146.9-10.7c35.6-10.7,115.4,4.1,133.5,0
	c18.1-4.1,110.7-16.4,110.7-16.4l188.5-5.5l211.9,31l0.1,31H900.1z"/>
</svg>
