<?xml version="1.0" encoding="utf-8"?>
<!-- Generator: Adobe Illustrator 25.0.0, SVG Export Plug-In . SVG Version: 6.00 Build 0)  -->
<svg version="1.1" id="Слой_1" xmlns="http://www.w3.org/2000/svg" xmlns:xlink="http://www.w3.org/1999/xlink" x="0px" y="0px"
	 viewBox="0 0 4860 1080" style="enable-background:new 0 0 4860 1080;" xml:space="preserve">
<style type="text/css">
	.st0{fill:#FA7268;}
	.st1{fill:url(#SVGID_1_);}
	.st2{fill:url(#SVGID_2_);}
	.st3{fill:url(#SVGID_3_);}
	.st4{fill:url(#SVGID_4_);}
	.st5{fill:none;}
	.st6{fill:url(#SVGID_5_);}
	.st7{fill:url(#SVGID_6_);}
	.st8{fill:url(#SVGID_7_);}
	.st9{fill:url(#SVGID_8_);}
	.st10{fill:url(#SVGID_9_);}
	.st11{fill:url(#SVGID_10_);}
	.st12{fill:url(#SVGID_11_);}
</style>
<path class="st0" d="M747.3,1081.3"/>
<linearGradient id="SVGID_1_" gradientUnits="userSpaceOnUse" x1="1545.3" y1="-1.3" x2="1545.3" y2="-1.3" gradientTransform="matrix(1 0 0 -1 0 1080)">
	<stop  offset="0.3442" style="stop-color:#D23467"/>
	<stop  offset="0.6669" style="stop-color:#5894F9"/>
</linearGradient>
<path class="st1" d="M1545.3,1081.3"/>
<linearGradient id="SVGID_2_" gradientUnits="userSpaceOnUse" x1="1658.4" y1="-1.3" x2="1658.4" y2="-1.3" gradientTransform="matrix(1 0 0 -1 0 1080)">
	<stop  offset="0.1742" style="stop-color:#DE4467"/>
	<stop  offset="0.8376" style="stop-color:#72A6FB"/>
</linearGradient>
<path class="st2" d="M1658.4,1081.3"/>
<linearGradient id="SVGID_3_" gradientUnits="userSpaceOnUse" x1="3171.3999" y1="-1.3" x2="3171.3999" y2="-1.3" gradientTransform="matrix(1 0 0 -1 0 1080)">
	<stop  offset="0.1742" style="stop-color:#DE4467"/>
	<stop  offset="0.8376" style="stop-color:#72A6FB"/>
</linearGradient>
<path class="st3" d="M3171.4,1081.3"/>
<linearGradient id="SVGID_4_" gradientUnits="userSpaceOnUse" x1="1620.4" y1="-1.3" x2="1620.4" y2="-1.3" gradientTransform="matrix(1 0 0 -1 0 1080)">
	<stop  offset="0.2524" style="stop-color:#FEF3F3"/>
	<stop  offset="0.7295" style="stop-color:#DBEAFE"/>
</linearGradient>
<path class="st4" d="M1620.4,1081.3"/>
<line class="st5" x1="3.6" y1="1081.3" x2="0" y2="485.3"/>
<linearGradient id="SVGID_5_" gradientUnits="userSpaceOnUse" x1="0" y1="539.35" x2="4860" y2="539.35" gradientTransform="matrix(1 0 0 -1 0 1080)">
	<stop  offset="0.4646" style="stop-color:#FEE2E2"/>
	<stop  offset="0.5808" style="stop-color:#DBEAFE"/>
</linearGradient>
<rect class="st6" width="4860" height="1081.3"/>
<linearGradient id="SVGID_6_" gradientUnits="userSpaceOnUse" x1="0" y1="105.6" x2="4860" y2="105.6" gradientTransform="matrix(1 0 0 -1 0 1080)">
	<stop  offset="0.4541" style="stop-color:#FA7268"/>
	<stop  offset="0.5623" style="stop-color:#C0D9FE"/>
</linearGradient>
<path class="st7" d="M4860,1081.3V880.2l-226,37.3l-237.6-34.1l-232.2,22l-230.4-14l-232.2-24l-230.4,63l-232.2-38l-409.1,30.3
	l-164.2,6.5L2488.2,909c-55.4,8.4-121.7,16.1-197.3,20.2c-96.6,5.2-181.5,3-249.5-1.3c-18.3-1.6-46.1-4.2-79.7-8l-242.3-20.6
	c-40.7-4-72.6-7.5-100.6-10.2l-21-2c-42.9-1.7-61.8-4.1-103.2-2.6c-41.4,1.5-82.8,6.5-124.6,14.7c-41.6,8.1-83.7,19.5-125.3,19.3
	c-41.8-0.2-83.2-11.8-124.6-13.8s-82.8,5.6-124.2,10c-41.4,4.3-82.8,5.3-124.6,5.1c-41.6-0.1-83.7-1.5-125.3-8.1
	c-41.6-6.7-83-18.7-124.4-20.9c-41.4-2.1-82.8,5.5-124.2,5.5s-82.8-7.6-124.6-5.3c-41.6,2.3-83.7,14.7-125.3,20.5
	c-41.8,5.8-83.2,5.2-124.6,0.2s-82.8-14.4-103.5-19L0,888.4v193"/>
<linearGradient id="SVGID_7_" gradientUnits="userSpaceOnUse" x1="0" y1="92.2" x2="4860" y2="92.2" gradientTransform="matrix(1 0 0 -1 0 1080)">
	<stop  offset="0.39" style="stop-color:#F16367"/>
	<stop  offset="0.5821" style="stop-color:#A6C8FE"/>
</linearGradient>
<path class="st8" d="M4860,1081.3v-177l-232.6,37l-230.4-29l-232.2-18l-230.4,29l-232.2,35l-230.4-32l-232.2,9l-234.1,15.9
	l-316.4-17.4l-125.6,13.6c0,0-138.9-10.2-219.8-10.9s-155.8,20.1-207.7,39.6s-236.7-31.5-236.7-31.5s-187.2-28.8-216.1-30.2
	c-29-1.3-63.4,9-63.4,9l-20.7,5.3c-20.7,5.4-62.1,16-103.5,14.4c-41.4-1.7-82.8-15.7-124.6-24.4c-41.6-8.6-83.7-12-125.3-8
	c-41.8,4-83.2,15.4-124.6,22.7s-82.8,10.7-124.2,5.2c-41.4-5.5-82.8-19.9-124.6-19.4c-41.6,0.5-83.7,15.9-125.3,18.5
	c-41.8,2.7-83.2-7.3-124.6-7.1c-41.4,0.1-82.8,10.5-124.2,15.1c-41.4,4.7-82.8,3.7-124.6,0.4c-41.6-3.4-83.7-9-125.3-11
	c-41.8-2-83.2-0.4-124.6,2c-41.4,2.3-82.8,5.3-103.5,6.8L0,945.3v136"/>
<linearGradient id="SVGID_8_" gradientUnits="userSpaceOnUse" x1="-0.1999" y1="77.65" x2="4860" y2="77.65" gradientTransform="matrix(1 0 0 -1 0 1080)">
	<stop  offset="0.4519" style="stop-color:#E85467"/>
	<stop  offset="0.586" style="stop-color:#8CB7FD"/>
</linearGradient>
<path class="st9" d="M4860,1081.3v-150l-184.6,15.2L4437,975.9l-240.2-38.5L3958.4,979l-240.2-55.7l-238.4,27.4l-240.2-10.3
	l-183.3,31.5l-332.1,26c0,0-230.6-23.7-299.4-16.5s-266.9-12.9-334.5-30s-150.9,10.7-202.8,24.9s-109.9-19.5-148.5-8
	c-37.6,11.3-114.7,7.3-118.9,7.1l0,0l-20.7-0.8c-20.7-0.9-62.1-2.5-103.5-8.7s-82.8-16.8-124.6-19c-41.6-2.2-83.7,4.2-125.3,6.8
	c-41.8,2.7-83.2,1.7-124.6-0.5c-41.4-2.1-82.8-5.5-124.2-1.3c-41.4,4.2-82.8,15.8-124.6,16.2c-41.6,0.3-83.7-10.7-125.3-11.4
	c-41.8-0.6-83.2,9-124.6,13.9c-41.4,4.8-82.8,4.8-124.2-1.7s-82.8-19.5-124.6-24.7c-41.6-5.1-83.7-2.5-125.3,2.9
	c-41.8,5.3-83.2,13.3-124.6,14.3s-82.8-5-103.5-8l-20.7-3v131"/>
<linearGradient id="SVGID_9_" gradientUnits="userSpaceOnUse" x1="0" y1="60.5" x2="4860" y2="60.5" gradientTransform="matrix(1 0 0 -1 0 1080)">
	<stop  offset="0.3926" style="stop-color:#DE4467"/>
	<stop  offset="0.5761" style="stop-color:#72A6FB"/>
</linearGradient>
<path class="st10" d="M4860,1081.3V957.7l-234,16.4l-230.4,14l-232.2-17l-230.4,26l-232.2,10l-230.4-16l-232.2,1l-337.9,7.9
	l-260.8-34.9c-65.2,3.6-130.4,7.2-195.6,10.7c-9.3-1.4-23.5-3.2-41.1-4.3c-97.7-5.8-132,22.8-218.6,21.7
	c-59.4-0.7-53.6-14.9-126.8-16.1c-34.9-0.6-68.8,2.8-135.2,9.4c-61.5,6.1-73.7,8.8-97.8,11c-46.8,4.2-113.6,5.5-204.4-14.2
	l-20.7-3.8c-20.7-2.9-62.1-8.5-103.5-5.5s-82.8,14.6-124.6,15.3c-41.6,0.7-83.7-9.7-125.3-9.5c-41.8,0.2-83.2,10.8-124.6,16.7
	c-41.4,5.8-82.8,6.8-124.2,8c-41.4,1.1-82.8,2.5-124.6-0.5c-41.6-3-83.7-10.4-125.3-17.2c-41.8-6.8-83.2-13.2-124.6-16.3
	c-41.4-3.2-82.8-3.2-124.2,1c-41.4,4.1-82.8,12.5-124.6,14c-41.6,1.5-83.7-3.9-125.3-7.2c-41.8-3.3-83.2-4.7-124.6-0.5
	s-82.8,13.8-103.5,18.7L0,1001.3v80"/>
<linearGradient id="SVGID_10_" gradientUnits="userSpaceOnUse" x1="0" y1="45.964" x2="4860" y2="45.964" gradientTransform="matrix(1 0 0 -1 0 1080)">
	<stop  offset="0.4265" style="stop-color:#D23467"/>
	<stop  offset="0.5825" style="stop-color:#5894F9"/>
</linearGradient>
<path class="st11" d="M4860,1081.3v-48.7l-232.8,3.9l-230.4-37l-232.2,22l-230.4-16l-232.2-13l-230.4,3l-232.1,40v-0.2
	c-48.6-8.7-97.3-17.5-145.9-26.2c-25,3.2-59.2,7.2-100.2,10.5c-25.9,2.1-72.9,6-118.4,6.7c-53.8,0.8-49.8-3.8-216.1-17.2
	c-86.4-7-115.1-8-146.1-7.6c-15.4,0.2-29.6,0.8-51.9,0c-54.4-1.9-93.4-9.4-103.4-11.1c-62.3-10.9-128.6,5.3-248,15.2
	c-165.9,13.7-199.9-4.3-396,13.7c-40,3.7-30.9,5.3-52.1,8l-41.4,3l-20.7,0.7c-20.7,0.6-62.1,2-103.5-1.5s-82.8-11.9-124.6-15.4
	c-41.6-3.5-83.7-2.1-125.3,1.9c-41.8,4-83.2,10.6-124.6,12.1s-82.8-2.1-124.2-4.8c-41.4-2.7-82.8-4.3-124.6-2.3
	c-41.6,2-83.7,7.6-125.3,10.6c-41.8,3-83.2,3.4-124.6,1.5c-41.4-1.8-82.8-5.8-124.2-10.3c-41.4-4.5-82.8-9.5-124.6-10.3
	c-41.6-0.9-83.7,2.5-125.3,6.1c-41.8,3.7-83.2,7.7-124.6,7c-41.4-0.6-82.8-6-103.5-8.6L0,1014.3v67"/>
<linearGradient id="SVGID_11_" gradientUnits="userSpaceOnUse" x1="-9.984970e-02" y1="29.65" x2="4860" y2="29.65" gradientTransform="matrix(1 0 0 -1 0 1080)">
	<stop  offset="0.3317" style="stop-color:#C62368"/>
	<stop  offset="0.667" style="stop-color:#3B82F6"/>
</linearGradient>
<path class="st12" d="M4860,1081.3v-30.8l-232.2-1.2l-230.4-18l-232.2,21l-230.4,8l-232.2-25l-230.4,19l-232.2-4v0.1l-381.2-31
	l-339.4,5.5c0,0-166.7,12.2-199.3,16.4s-176.4-10.7-240.4,0s-221.1,17.4-264.5,10.7c-43.1-6.7-164.6-5.7-180.8-6.7l-34.9-2
	c-20.7-2-62.1-6-103.5-8.8c-41.4-2.9-82.8-4.5-124.6-0.9c-41.6,3.7-83.7,12.7-125.3,16c-41.8,3.4-83.2,1-124.6-2.5
	s-82.8-8.1-124.2-8c-41.4,0.2-82.8,5.2-124.6,6.7c-41.6,1.5-83.7-0.5-125.3-2.7c-41.8-2.1-83.2-4.5-124.6-2.1
	c-41.4,2.3-82.8,9.3-124.2,11.3s-82.8-1-124.6-4.8c-41.6-3.9-83.7-8.5-125.3-8.9c-41.8-0.3-83.2,3.7-124.6,6.7s-82.8,5-103.5,6
	l-20.7,1v29"/>
</svg>
