<svg id="visual" viewBox="0 0 4000 2000" width="4000" height="2000" xmlns="http://www.w3.org/2000/svg" xmlns:xlink="http://www.w3.org/1999/xlink" version="1.1"><rect x="0" y="0" width="4000" height="2000" fill="#FEF3F3"></rect><path d="M0 1352L51.3 1367.7C102.7 1383.3 205.3 1414.7 307.8 1431.5C410.3 1448.3 512.7 1450.7 615.2 1431.3C717.7 1412 820.3 1371 923 1363.3C1025.7 1355.7 1128.3 1381.3 1230.8 1380.8C1333.3 1380.3 1435.7 1353.7 1538.2 1360.7C1640.7 1367.7 1743.3 1408.3 1846 1430.8C1948.7 1453.3 2051.3 1457.7 2154 1458.2C2256.7 1458.7 2359.3 1455.3 2461.8 1441C2564.3 1426.7 2666.7 1401.3 2769.2 1408.2C2871.7 1415 2974.3 1454 3077 1454.7C3179.7 1455.3 3282.3 1417.7 3384.8 1390.2C3487.3 1362.7 3589.7 1345.3 3692.2 1340C3794.7 1334.7 3897.3 1341.3 3948.7 1344.7L4000 1348L4000 2001L3948.7 2001C3897.3 2001 3794.7 2001 3692.2 2001C3589.7 2001 3487.3 2001 3384.8 2001C3282.3 2001 3179.7 2001 3077 2001C2974.3 2001 2871.7 2001 2769.2 2001C2666.7 2001 2564.3 2001 2461.8 2001C2359.3 2001 2256.7 2001 2154 2001C2051.3 2001 1948.7 2001 1846 2001C1743.3 2001 1640.7 2001 1538.2 2001C1435.7 2001 1333.3 2001 1230.8 2001C1128.3 2001 1025.7 2001 923 2001C820.3 2001 717.7 2001 615.2 2001C512.7 2001 410.3 2001 307.8 2001C205.3 2001 102.7 2001 51.3 2001L0 2001Z" fill="#fa7268"></path><path d="M0 1551L51.3 1546.2C102.7 1541.3 205.3 1531.7 307.8 1524C410.3 1516.3 512.7 1510.7 615.2 1517.3C717.7 1524 820.3 1543 923 1554.2C1025.7 1565.3 1128.3 1568.7 1230.8 1553.2C1333.3 1537.7 1435.7 1503.3 1538.2 1502.7C1640.7 1502 1743.3 1535 1846 1526.2C1948.7 1517.3 2051.3 1466.7 2154 1465C2256.7 1463.3 2359.3 1510.7 2461.8 1528.7C2564.3 1546.7 2666.7 1535.3 2769.2 1511.2C2871.7 1487 2974.3 1450 3077 1437C3179.7 1424 3282.3 1435 3384.8 1463.8C3487.3 1492.7 3589.7 1539.3 3692.2 1545C3794.7 1550.7 3897.3 1515.3 3948.7 1497.7L4000 1480L4000 2001L3948.7 2001C3897.3 2001 3794.7 2001 3692.2 2001C3589.7 2001 3487.3 2001 3384.8 2001C3282.3 2001 3179.7 2001 3077 2001C2974.3 2001 2871.7 2001 2769.2 2001C2666.7 2001 2564.3 2001 2461.8 2001C2359.3 2001 2256.7 2001 2154 2001C2051.3 2001 1948.7 2001 1846 2001C1743.3 2001 1640.7 2001 1538.2 2001C1435.7 2001 1333.3 2001 1230.8 2001C1128.3 2001 1025.7 2001 923 2001C820.3 2001 717.7 2001 615.2 2001C512.7 2001 410.3 2001 307.8 2001C205.3 2001 102.7 2001 51.3 2001L0 2001Z" fill="#f16367"></path><path d="M0 1570L51.3 1580.2C102.7 1590.3 205.3 1610.7 307.8 1607.3C410.3 1604 512.7 1577 615.2 1559C717.7 1541 820.3 1532 923 1549.2C1025.7 1566.3 1128.3 1609.7 1230.8 1631C1333.3 1652.3 1435.7 1651.7 1538.2 1635.3C1640.7 1619 1743.3 1587 1846 1589.5C1948.7 1592 2051.3 1629 2154 1627.7C2256.7 1626.3 2359.3 1586.7 2461.8 1573C2564.3 1559.3 2666.7 1571.7 2769.2 1579.5C2871.7 1587.3 2974.3 1590.7 3077 1581.3C3179.7 1572 3282.3 1550 3384.8 1557C3487.3 1564 3589.7 1600 3692.2 1621C3794.7 1642 3897.3 1648 3948.7 1651L4000 1654L4000 2001L3948.7 2001C3897.3 2001 3794.7 2001 3692.2 2001C3589.7 2001 3487.3 2001 3384.8 2001C3282.3 2001 3179.7 2001 3077 2001C2974.3 2001 2871.7 2001 2769.2 2001C2666.7 2001 2564.3 2001 2461.8 2001C2359.3 2001 2256.7 2001 2154 2001C2051.3 2001 1948.7 2001 1846 2001C1743.3 2001 1640.7 2001 1538.2 2001C1435.7 2001 1333.3 2001 1230.8 2001C1128.3 2001 1025.7 2001 923 2001C820.3 2001 717.7 2001 615.2 2001C512.7 2001 410.3 2001 307.8 2001C205.3 2001 102.7 2001 51.3 2001L0 2001Z" fill="#e85467"></path><path d="M0 1739L51.3 1723C102.7 1707 205.3 1675 307.8 1661.2C410.3 1647.3 512.7 1651.7 615.2 1662.7C717.7 1673.7 820.3 1691.3 923 1686.2C1025.7 1681 1128.3 1653 1230.8 1639.2C1333.3 1625.3 1435.7 1625.7 1538.2 1636.3C1640.7 1647 1743.3 1668 1846 1690.5C1948.7 1713 2051.3 1737 2154 1746.7C2256.7 1756.3 2359.3 1751.7 2461.8 1747.8C2564.3 1744 2666.7 1741 2769.2 1721.8C2871.7 1702.7 2974.3 1667.3 3077 1666.7C3179.7 1666 3282.3 1700 3384.8 1697.8C3487.3 1695.7 3589.7 1657.3 3692.2 1647.7C3794.7 1638 3897.3 1657 3948.7 1666.5L4000 1676L4000 2001L3948.7 2001C3897.3 2001 3794.7 2001 3692.2 2001C3589.7 2001 3487.3 2001 3384.8 2001C3282.3 2001 3179.7 2001 3077 2001C2974.3 2001 2871.7 2001 2769.2 2001C2666.7 2001 2564.3 2001 2461.8 2001C2359.3 2001 2256.7 2001 2154 2001C2051.3 2001 1948.7 2001 1846 2001C1743.3 2001 1640.7 2001 1538.2 2001C1435.7 2001 1333.3 2001 1230.8 2001C1128.3 2001 1025.7 2001 923 2001C820.3 2001 717.7 2001 615.2 2001C512.7 2001 410.3 2001 307.8 2001C205.3 2001 102.7 2001 51.3 2001L0 2001Z" fill="#de4467"></path><path d="M0 1781L51.3 1790.3C102.7 1799.7 205.3 1818.3 307.8 1821C410.3 1823.7 512.7 1810.3 615.2 1797.8C717.7 1785.3 820.3 1773.7 923 1776.2C1025.7 1778.7 1128.3 1795.3 1230.8 1810.2C1333.3 1825 1435.7 1838 1538.2 1844.2C1640.7 1850.3 1743.3 1849.7 1846 1839.7C1948.7 1829.7 2051.3 1810.3 2154 1803.8C2256.7 1797.3 2359.3 1803.7 2461.8 1813C2564.3 1822.3 2666.7 1834.7 2769.2 1829.7C2871.7 1824.7 2974.3 1802.3 3077 1789C3179.7 1775.7 3282.3 1771.3 3384.8 1782.8C3487.3 1794.3 3589.7 1821.7 3692.2 1833C3794.7 1844.3 3897.3 1839.7 3948.7 1837.3L4000 1835L4000 2001L3948.7 2001C3897.3 2001 3794.7 2001 3692.2 2001C3589.7 2001 3487.3 2001 3384.8 2001C3282.3 2001 3179.7 2001 3077 2001C2974.3 2001 2871.7 2001 2769.2 2001C2666.7 2001 2564.3 2001 2461.8 2001C2359.3 2001 2256.7 2001 2154 2001C2051.3 2001 1948.7 2001 1846 2001C1743.3 2001 1640.7 2001 1538.2 2001C1435.7 2001 1333.3 2001 1230.8 2001C1128.3 2001 1025.7 2001 923 2001C820.3 2001 717.7 2001 615.2 2001C512.7 2001 410.3 2001 307.8 2001C205.3 2001 102.7 2001 51.3 2001L0 2001Z" fill="#d23467"></path><path d="M0 1909L51.3 1905.8C102.7 1902.7 205.3 1896.3 307.8 1886.5C410.3 1876.7 512.7 1863.3 615.2 1864.3C717.7 1865.3 820.3 1880.7 923 1893.5C1025.7 1906.3 1128.3 1916.7 1230.8 1909.7C1333.3 1902.7 1435.7 1878.3 1538.2 1870.2C1640.7 1862 1743.3 1870 1846 1877.5C1948.7 1885 2051.3 1892 2154 1887.3C2256.7 1882.7 2359.3 1866.3 2461.8 1865.7C2564.3 1865 2666.7 1880 2769.2 1891.7C2871.7 1903.3 2974.3 1911.7 3077 1900.5C3179.7 1889.3 3282.3 1858.7 3384.8 1846.5C3487.3 1834.3 3589.7 1840.7 3692.2 1850.5C3794.7 1860.3 3897.3 1873.7 3948.7 1880.3L4000 1887L4000 2001L3948.7 2001C3897.3 2001 3794.7 2001 3692.2 2001C3589.7 2001 3487.3 2001 3384.8 2001C3282.3 2001 3179.7 2001 3077 2001C2974.3 2001 2871.7 2001 2769.2 2001C2666.7 2001 2564.3 2001 2461.8 2001C2359.3 2001 2256.7 2001 2154 2001C2051.3 2001 1948.7 2001 1846 2001C1743.3 2001 1640.7 2001 1538.2 2001C1435.7 2001 1333.3 2001 1230.8 2001C1128.3 2001 1025.7 2001 923 2001C820.3 2001 717.7 2001 615.2 2001C512.7 2001 410.3 2001 307.8 2001C205.3 2001 102.7 2001 51.3 2001L0 2001Z" fill="#c62368"></path></svg>