<svg
  id="visual"
  viewBox="0 0 900 600"
  width="900"
  height="600"
  xmlns="http://www.w3.org/2000/svg"
  xmlns:xlink="http://www.w3.org/1999/xlink"
  version="1.1"
>
  <rect x="0" y="0" width="900" height="600" fill="rgb(254, 226, 226)"></rect>
  <path
    d="M0 405L11.5 409.7C23 414.3 46 423.7 69 428.7C92 433.7 115 434.3 138.2 428.5C161.3 422.7 184.7 410.3 207.8 408C231 405.7 254 413.3 277 413.3C300 413.3 323 405.7 346 407.8C369 410 392 422 415.2 428.7C438.3 435.3 461.7 436.7 484.8 436.8C508 437 531 436 554 431.7C577 427.3 600 419.7 623 421.7C646 423.7 669 435.3 692.2 435.5C715.3 435.7 738.7 424.3 761.8 416.2C785 408 808 403 831 401.5C854 400 877 402 888.5 403L900 404L900 601L888.5 601C877 601 854 601 831 601C808 601 785 601 761.8 601C738.7 601 715.3 601 692.2 601C669 601 646 601 623 601C600 601 577 601 554 601C531 601 508 601 484.8 601C461.7 601 438.3 601 415.2 601C392 601 369 601 346 601C323 601 300 601 277 601C254 601 231 601 207.8 601C184.7 601 161.3 601 138.2 601C115 601 92 601 69 601C46 601 23 601 11.5 601L0 601Z"
    fill="#fa7268"
  ></path>
  <path
    d="M0 465L11.5 463.5C23 462 46 459 69 456.7C92 454.3 115 452.7 138.2 454.7C161.3 456.7 184.7 462.3 207.8 465.7C231 469 254 470 277 465.3C300 460.7 323 450.3 346 450.2C369 450 392 460 415.2 457.3C438.3 454.7 461.7 439.3 484.8 438.8C508 438.3 531 452.7 554 458.2C577 463.7 600 460.3 623 453C646 445.7 669 434.3 692.2 430.3C715.3 426.3 738.7 429.7 761.8 438.3C785 447 808 461 831 462.7C854 464.3 877 453.7 888.5 448.3L900 443L900 601L888.5 601C877 601 854 601 831 601C808 601 785 601 761.8 601C738.7 601 715.3 601 692.2 601C669 601 646 601 623 601C600 601 577 601 554 601C531 601 508 601 484.8 601C461.7 601 438.3 601 415.2 601C392 601 369 601 346 601C323 601 300 601 277 601C254 601 231 601 207.8 601C184.7 601 161.3 601 138.2 601C115 601 92 601 69 601C46 601 23 601 11.5 601L0 601Z"
    fill="#f16367"
  ></path>
  <path
    d="M0 470L11.5 473C23 476 46 482 69 481C92 480 115 472 138.2 466.7C161.3 461.3 184.7 458.7 207.8 463.8C231 469 254 482 277 488.5C300 495 323 495 346 490.2C369 485.3 392 475.7 415.2 476.3C438.3 477 461.7 488 484.8 487.7C508 487.3 531 475.7 554 471.5C577 467.3 600 470.7 623 472.8C646 475 669 476 692.2 473.3C715.3 470.7 738.7 464.3 761.8 466.5C785 468.7 808 479.3 831 485.5C854 491.7 877 493.3 888.5 494.2L900 495L900 601L888.5 601C877 601 854 601 831 601C808 601 785 601 761.8 601C738.7 601 715.3 601 692.2 601C669 601 646 601 623 601C600 601 577 601 554 601C531 601 508 601 484.8 601C461.7 601 438.3 601 415.2 601C392 601 369 601 346 601C323 601 300 601 277 601C254 601 231 601 207.8 601C184.7 601 161.3 601 138.2 601C115 601 92 601 69 601C46 601 23 601 11.5 601L0 601Z"
    fill="#e85467"
  ></path>
  <path
    d="M0 521L11.5 516.2C23 511.3 46 501.7 69 497.5C92 493.3 115 494.7 138.2 498C161.3 501.3 184.7 506.7 207.8 505.2C231 503.7 254 495.3 277 491.2C300 487 323 487 346 490.2C369 493.3 392 499.7 415.2 506.5C438.3 513.3 461.7 520.7 484.8 523.7C508 526.7 531 525.3 554 524.2C577 523 600 522 623 516.2C646 510.3 669 499.7 692.2 499.5C715.3 499.3 738.7 509.7 761.8 509C785 508.3 808 496.7 831 493.7C854 490.7 877 496.3 888.5 499.2L900 502L900 601L888.5 601C877 601 854 601 831 601C808 601 785 601 761.8 601C738.7 601 715.3 601 692.2 601C669 601 646 601 623 601C600 601 577 601 554 601C531 601 508 601 484.8 601C461.7 601 438.3 601 415.2 601C392 601 369 601 346 601C323 601 300 601 277 601C254 601 231 601 207.8 601C184.7 601 161.3 601 138.2 601C115 601 92 601 69 601C46 601 23 601 11.5 601L0 601Z"
    fill="#de4467"
  ></path>
  <path
    d="M0 534L11.5 536.7C23 539.3 46 544.7 69 545.3C92 546 115 542 138.2 538.3C161.3 534.7 184.7 531.3 207.8 532.2C231 533 254 538 277 542.5C300 547 323 551 346 552.8C369 554.7 392 554.3 415.2 551.3C438.3 548.3 461.7 542.7 484.8 540.7C508 538.7 531 540.3 554 543C577 545.7 600 549.3 623 547.8C646 546.3 669 539.7 692.2 535.7C715.3 531.7 738.7 530.3 761.8 533.8C785 537.3 808 545.7 831 549.2C854 552.7 877 551.3 888.5 550.7L900 550L900 601L888.5 601C877 601 854 601 831 601C808 601 785 601 761.8 601C738.7 601 715.3 601 692.2 601C669 601 646 601 623 601C600 601 577 601 554 601C531 601 508 601 484.8 601C461.7 601 438.3 601 415.2 601C392 601 369 601 346 601C323 601 300 601 277 601C254 601 231 601 207.8 601C184.7 601 161.3 601 138.2 601C115 601 92 601 69 601C46 601 23 601 11.5 601L0 601Z"
    fill="#d23467"
  ></path>
  <path
    d="M0 572L11.5 571C23 570 46 568 69 565C92 562 115 558 138.2 558.3C161.3 558.7 184.7 563.3 207.8 567.2C231 571 254 574 277 572C300 570 323 563 346 560.7C369 558.3 392 560.7 415.2 562.8C438.3 565 461.7 567 484.8 565.5C508 564 531 559 554 558.8C577 558.7 600 563.3 623 566.8C646 570.3 669 572.7 692.2 569.3C715.3 566 738.7 557 761.8 553.3C785 549.7 808 551.3 831 554.2C854 557 877 561 888.5 563L900 565L900 601L888.5 601C877 601 854 601 831 601C808 601 785 601 761.8 601C738.7 601 715.3 601 692.2 601C669 601 646 601 623 601C600 601 577 601 554 601C531 601 508 601 484.8 601C461.7 601 438.3 601 415.2 601C392 601 369 601 346 601C323 601 300 601 277 601C254 601 231 601 207.8 601C184.7 601 161.3 601 138.2 601C115 601 92 601 69 601C46 601 23 601 11.5 601L0 601Z"
    fill="#c62368"
  ></path>
</svg>
