<?xml version="1.0" encoding="utf-8"?>
<!-- Generator: Adobe Illustrator 25.0.1, SVG Export Plug-In . SVG Version: 6.00 Build 0)  -->
<svg version="1.1" id="Слой_1" xmlns="http://www.w3.org/2000/svg" xmlns:xlink="http://www.w3.org/1999/xlink" x="0px"
	y="0px" viewBox="0 0 24 24" style="enable-background:new 0 0 24 24;" xml:space="preserve">
	<style type="text/css">
		.st0 {
			fill: none;
		}

		.st1 {
			fill: #60A5FA;
			stroke: #2563EB;
			stroke-width: 0.25;
			stroke-miterlimit: 10;
		}
	</style>
	<g>
		<path class="st0" d="M0,0h24v24H0V0z" />
		<path class="st1"
			d="M18,2v1.4l-5.2,6.2c3.6,0.4,6.1,3.7,5.6,7.3c-0.4,3.6-3.7,6.1-7.3,5.6c-2.7-0.3-4.8-2.3-5.5-4.9l1.9-0.5
		c0.6,2.4,3.1,3.9,5.5,3.3c2-0.5,3.4-2.3,3.4-4.4c0-2.5-2-4.5-4.5-4.5c-0.7,0-1.4,0.2-2,0.5l-0.2,0.1l-0.7-1.2L14.9,4H6.5V2H18z" />
	</g>
</svg>