<?xml version="1.0" encoding="utf-8"?>
<!-- Generator: Adobe Illustrator 25.0.1, SVG Export Plug-In . SVG Version: 6.00 Build 0)  -->
<svg version="1.1" id="Слой_1" xmlns="http://www.w3.org/2000/svg" xmlns:xlink="http://www.w3.org/1999/xlink" x="0px" y="0px"
	 viewBox="0 0 24 24" style="enable-background:new 0 0 24 24;" xml:space="preserve">
<style type="text/css">
	.st0{fill:none;}
	.st1{fill:#60A5FA;stroke:#2563EB;stroke-width:0.25;stroke-miterlimit:10;}
</style>
<g>
	<path class="st0" d="M0,0h24v24H0V0z"/>
	<path class="st1" d="M16,7.5c0-2.2-1.8-4-4-4s-4,1.8-4,4H6c0-3.3,2.7-6,6-6c3.3,0,6,2.7,6,6c0,1.4-0.5,2.7-1.3,3.8L9.3,20l8.7,0v2
		H6v-1.1l9.1-10.8C15.7,9.4,16,8.4,16,7.5z"/>
</g>
<g>
	<path class="st0" d="M27.8,15.3h24v24h-24V15.3z"/>
</g>
</svg>
