<?xml version="1.0" encoding="utf-8"?>
<!-- Generator: Adobe Illustrator 25.0.1, SVG Export Plug-In . SVG Version: 6.00 Build 0)  -->
<svg version="1.1" id="Слой_1" xmlns="http://www.w3.org/2000/svg" xmlns:xlink="http://www.w3.org/1999/xlink" x="0px" y="0px"
	 viewBox="0 0 128 128" style="enable-background:new 0 0 128 128;" xml:space="preserve">
<style type="text/css">
	.st0{fill:none;}
	.st1{fill:#A9A9A9;}
	.st2{fill:#002C9F;}
	.st3{fill:none;stroke:#020202;stroke-width:4.5;stroke-miterlimit:10;}
	.st4{fill:none;stroke:#C0C0C0;stroke-width:4.5;stroke-miterlimit:10;}
	.st5{fill:none;stroke:#C0C0C0;stroke-width:2;stroke-miterlimit:10;}
	.st6{fill:none;stroke:#020202;stroke-miterlimit:10;}
	.st7{fill:#03007F;}
	.st8{fill:#6AD3FF;stroke:#64FF2A;stroke-miterlimit:10;}
	.st9{fill:#03007F;stroke:#020202;stroke-miterlimit:10;}
	.st10{fill:#410AFF;}
	.st11{fill:#0040FF;}
	.st12{fill:#0038C9;}
	.st13{fill:none;stroke:#000000;stroke-width:4.5;stroke-miterlimit:10;}
	.st14{fill:none;stroke:#000000;stroke-width:2;stroke-miterlimit:10;}
	.st15{fill:#03007F;stroke:#000000;stroke-miterlimit:10;}
	.st16{fill:none;stroke:#000000;stroke-miterlimit:10;}
	.st17{fill:#6AD3FF;stroke:#000000;stroke-miterlimit:10;}
</style>
<path class="st0" d="M619.3-526.7"/>
<g>
	<polygon class="st1" points="241.7,53.1 245.2,51.6 245.2,49.4 241.3,50.7 	"/>
	<g>
		<polygon class="st2" points="241.7,36.7 245.2,33.6 246.1,39.8 241.9,39.8 		"/>
	</g>
	<g>
		<line class="st3" x1="210.8" y1="44.9" x2="249.3" y2="44.9"/>
		<line class="st3" x1="249" y1="44.9" x2="240.3" y2="38.5"/>
		<line class="st3" x1="240.3" y1="51.3" x2="249" y2="44.9"/>
	</g>
	<g>
		<line class="st4" x1="214.3" y1="42.6" x2="252.8" y2="42.6"/>
		<line class="st4" x1="252.5" y1="42.6" x2="243.8" y2="35.3"/>
		<line class="st4" x1="243.8" y1="49.8" x2="252.5" y2="42.6"/>
	</g>
	<ellipse class="st5" cx="252.4" cy="42.6" rx="1.3" ry="1.3"/>
	<line class="st6" x1="216" y1="42.6" x2="252.7" y2="42.6"/>
	<line class="st6" x1="252.3" y1="42.5" x2="245.3" y2="36.6"/>
	<line class="st6" x1="245.3" y1="48.6" x2="252.3" y2="42.7"/>
	<g>
		<polyline class="st7" points="210.8,42.7 210.9,47 210.9,47 214.3,45 214.3,40.3 210.8,42.7 		"/>
	</g>
	<circle class="st8" cx="252.3" cy="42.6" r="0.1"/>
</g>
<path class="st9" d="M4.5,107.3"/>
<polygon class="st10" points="52.6,55 56.2,53.1 53.4,57.2 "/>
<polyline class="st11" points="52.6,72.9 56.2,71 56.4,69 52.6,70.6 "/>
<path class="st11" d="M52.6,72.9l0.1-2.3L52.6,72.9z"/>
<polygon class="st12" points="87.1,61.2 83,63.5 83.5,66.2 87.2,64.3 "/>
<line class="st13" x1="83.5" y1="63.9" x2="45.1" y2="63.9"/>
<line class="st13" x1="45.3" y1="63.9" x2="54" y2="56.7"/>
<line class="st13" x1="54" y1="71.2" x2="45.3" y2="63.9"/>
<ellipse class="st14" cx="45.4" cy="63.9" rx="1.3" ry="1.3"/>
<path class="st15" d="M45.2,63.9"/>
<path class="st16" d="M52.5,57.9"/>
<path class="st16" d="M45.5,64.1"/>
<path class="st16" d="M52.5,70"/>
<path class="st17" d="M45.6,63.8C45.7,63.8,45.7,63.9,45.6,63.8"/>
<g>
	<line class="st4" x1="87.2" y1="62.1" x2="48.7" y2="62.1"/>
	<line class="st4" x1="48.9" y1="62.1" x2="57.6" y2="54.8"/>
	<line class="st4" x1="57.6" y1="69.3" x2="48.9" y2="62.1"/>
</g>
<ellipse class="st5" cx="49" cy="62.1" rx="1.3" ry="1.3"/>
<line class="st6" x1="85.4" y1="62.1" x2="48.8" y2="62.1"/>
<line class="st6" x1="49.1" y1="61.9" x2="56.2" y2="56"/>
<line class="st6" x1="56.2" y1="68.1" x2="49.1" y2="62.2"/>
<circle class="st8" cx="49.2" cy="62.1" r="0.1"/>
</svg>
