<svg id="visual" viewBox="0 0 900 600" width="100%" height="100%" preserveAsoectRatio="none"
  xmlns="http://www.w3.org/2000/svg" xmlns:xlink="http://www.w3.org/1999/xlink" version="1.1">
  <path
    d="M0 305L21.5 305.8C43 306.7 86 308.3 128.8 319C171.7 329.7 214.3 349.3 257.2 349.8C300 350.3 343 331.7 385.8 320.7C428.7 309.7 471.3 306.3 514.2 302.2C557 298 600 293 642.8 296.8C685.7 300.7 728.3 313.3 771.2 323.5C814 333.7 857 341.3 878.5 345.2L900 349L900 601L878.5 601C857 601 814 601 771.2 601C728.3 601 685.7 601 642.8 601C600 601 557 601 514.2 601C471.3 601 428.7 601 385.8 601C343 601 300 601 257.2 601C214.3 601 171.7 601 128.8 601C86 601 43 601 21.5 601L0 601Z"
    fill="#fecaca"></path>
  <path
    d="M0 336L21.5 339C43 342 86 348 128.8 358.2C171.7 368.3 214.3 382.7 257.2 382C300 381.3 343 365.7 385.8 355.3C428.7 345 471.3 340 514.2 341.8C557 343.7 600 352.3 642.8 359C685.7 365.7 728.3 370.3 771.2 377.2C814 384 857 393 878.5 397.5L900 402L900 601L878.5 601C857 601 814 601 771.2 601C728.3 601 685.7 601 642.8 601C600 601 557 601 514.2 601C471.3 601 428.7 601 385.8 601C343 601 300 601 257.2 601C214.3 601 171.7 601 128.8 601C86 601 43 601 21.5 601L0 601Z"
    fill="#ffb1b0"></path>
  <path
    d="M0 410L21.5 406.5C43 403 86 396 128.8 399C171.7 402 214.3 415 257.2 422.3C300 429.7 343 431.3 385.8 432.2C428.7 433 471.3 433 514.2 433.8C557 434.7 600 436.3 642.8 435.3C685.7 434.3 728.3 430.7 771.2 428.3C814 426 857 425 878.5 424.5L900 424L900 601L878.5 601C857 601 814 601 771.2 601C728.3 601 685.7 601 642.8 601C600 601 557 601 514.2 601C471.3 601 428.7 601 385.8 601C343 601 300 601 257.2 601C214.3 601 171.7 601 128.8 601C86 601 43 601 21.5 601L0 601Z"
    fill="#fe9895"></path>
  <path
    d="M0 471L21.5 467.8C43 464.7 86 458.3 128.8 453C171.7 447.7 214.3 443.3 257.2 440.8C300 438.3 343 437.7 385.8 438.7C428.7 439.7 471.3 442.3 514.2 441.3C557 440.3 600 435.7 642.8 441.5C685.7 447.3 728.3 463.7 771.2 472C814 480.3 857 480.7 878.5 480.8L900 481L900 601L878.5 601C857 601 814 601 771.2 601C728.3 601 685.7 601 642.8 601C600 601 557 601 514.2 601C471.3 601 428.7 601 385.8 601C343 601 300 601 257.2 601C214.3 601 171.7 601 128.8 601C86 601 43 601 21.5 601L0 601Z"
    fill="#fb7e7b"></path>
  <path
    d="M0 507L21.5 506.5C43 506 86 505 128.8 501.2C171.7 497.3 214.3 490.7 257.2 489.8C300 489 343 494 385.8 493C428.7 492 471.3 485 514.2 486.5C557 488 600 498 642.8 500.8C685.7 503.7 728.3 499.3 771.2 499.2C814 499 857 503 878.5 505L900 507L900 601L878.5 601C857 601 814 601 771.2 601C728.3 601 685.7 601 642.8 601C600 601 557 601 514.2 601C471.3 601 428.7 601 385.8 601C343 601 300 601 257.2 601C214.3 601 171.7 601 128.8 601C86 601 43 601 21.5 601L0 601Z"
    fill="#f6635f"></path>
  <path
    d="M0 547L21.5 547.8C43 548.7 86 550.3 128.8 549.5C171.7 548.7 214.3 545.3 257.2 545.2C300 545 343 548 385.8 548.5C428.7 549 471.3 547 514.2 547.3C557 547.7 600 550.3 642.8 546.3C685.7 542.3 728.3 531.7 771.2 531.7C814 531.7 857 542.3 878.5 547.7L900 553L900 601L878.5 601C857 601 814 601 771.2 601C728.3 601 685.7 601 642.8 601C600 601 557 601 514.2 601C471.3 601 428.7 601 385.8 601C343 601 300 601 257.2 601C214.3 601 171.7 601 128.8 601C86 601 43 601 21.5 601L0 601Z"
    fill="#ef4444"></path>
</svg>