<?xml version="1.0" encoding="utf-8"?>
<!-- Generator: Adobe Illustrator 25.0.1, SVG Export Plug-In . SVG Version: 6.00 Build 0)  -->
<svg version="1.1" id="visual" xmlns="http://www.w3.org/2000/svg" xmlns:xlink="http://www.w3.org/1999/xlink" x="0px" y="0px"
	 viewBox="0 0 128 128" style="enable-background:new 0 0 128 128;" xml:space="preserve">
<style type="text/css">
	.st0{fill:#A5F2D0;}
	.st1{fill:#8EE6C0;}
	.st2{fill:#75DBB0;}
	.st3{fill:#5CCFA0;}
	.st4{fill:#3DC490;}
	.st5{fill:#03B881;}
</style>
<path class="st0" d="M0,86.4l3.1,0.1c3.1,0.1,9.2,0.4,15.3,1.9c6.1,1.5,12.2,4.3,18.3,4.3c6.1,0.1,12.2-2.5,18.3-4.1
	c6.1-1.5,12.2-2,18.3-2.6c6.1-0.6,12.2-1.3,18.3-0.8c6.1,0.5,12.2,2.3,18.3,3.8c6.1,1.4,12.2,2.5,15.3,3l3.1,0.5V128h-3.1
	c-3.1,0-9.2,0-15.3,0c-6.1,0-12.2,0-18.3,0c-6.1,0-12.2,0-18.3,0c-6.1,0-12.2,0-18.3,0c-6.1,0-12.2,0-18.3,0c-6.1,0-12.2,0-18.3,0
	c-6.1,0-12.2,0-15.3,0H0V86.4z"/>
<path class="st1" d="M0,90.8l3.1,0.4c3.1,0.4,9.2,1.3,15.3,2.7c6.1,1.4,12.2,3.4,18.3,3.3c6.1-0.1,12.2-2.3,18.3-3.8
	C61,92,67,91.3,73.1,91.6c6.1,0.3,12.2,1.5,18.3,2.4c6.1,0.9,12.2,1.6,18.3,2.6c6.1,1,12.2,2.2,15.3,2.9l3.1,0.6v28h-3.1
	c-3.1,0-9.2,0-15.3,0c-6.1,0-12.2,0-18.3,0c-6.1,0-12.2,0-18.3,0c-6.1,0-12.2,0-18.3,0c-6.1,0-12.2,0-18.3,0c-6.1,0-12.2,0-18.3,0
	c-6.1,0-12.2,0-15.3,0H0V90.8z"/>
<path class="st2" d="M0,101.2l3.1-0.5c3.1-0.5,9.2-1.5,15.3-1.1c6.1,0.4,12.2,2.2,18.3,3.3c6.1,1,12.2,1.3,18.3,1.4
	c6.1,0.1,12.2,0.1,18.3,0.2c6.1,0.1,12.2,0.4,18.3,0.2c6.1-0.1,12.2-0.6,18.3-1c6.1-0.3,12.2-0.5,15.3-0.5l3.1-0.1V128h-3.1
	c-3.1,0-9.2,0-15.3,0c-6.1,0-12.2,0-18.3,0c-6.1,0-12.2,0-18.3,0c-6.1,0-12.2,0-18.3,0c-6.1,0-12.2,0-18.3,0c-6.1,0-12.2,0-18.3,0
	c-6.1,0-12.2,0-15.3,0H0V101.2z"/>
<path class="st3" d="M0,109.7l3.1-0.4c3.1-0.4,9.2-1.3,15.3-2.1c6.1-0.7,12.2-1.4,18.3-1.7c6.1-0.4,12.2-0.4,18.3-0.3
	c6.1,0.1,12.2,0.5,18.3,0.4c6.1-0.1,12.2-0.8,18.3,0c6.1,0.8,12.2,3.1,18.3,4.3c6.1,1.2,12.2,1.2,15.3,1.2l3.1,0V128h-3.1
	c-3.1,0-9.2,0-15.3,0c-6.1,0-12.2,0-18.3,0c-6.1,0-12.2,0-18.3,0c-6.1,0-12.2,0-18.3,0c-6.1,0-12.2,0-18.3,0c-6.1,0-12.2,0-18.3,0
	c-6.1,0-12.2,0-15.3,0H0V109.7z"/>
<path class="st4" d="M0,114.8l3.1-0.1c3.1-0.1,9.2-0.2,15.3-0.7c6.1-0.5,12.2-1.5,18.3-1.6c6.1-0.1,12.2,0.6,18.3,0.4
	c6.1-0.1,12.2-1.1,18.3-0.9c6.1,0.2,12.2,1.6,18.3,2c6.1,0.4,12.2-0.2,18.3-0.2c6.1,0,12.2,0.5,15.3,0.8l3.1,0.3V128h-3.1
	c-3.1,0-9.2,0-15.3,0c-6.1,0-12.2,0-18.3,0c-6.1,0-12.2,0-18.3,0c-6.1,0-12.2,0-18.3,0c-6.1,0-12.2,0-18.3,0c-6.1,0-12.2,0-18.3,0
	c-6.1,0-12.2,0-15.3,0H0V114.8z"/>
<path class="st5" d="M0,120.4l3.1,0.1c3.1,0.1,9.2,0.4,15.3,0.2c6.1-0.1,12.2-0.6,18.3-0.6c6.1,0,12.2,0.4,18.3,0.5
	c6.1,0.1,12.2-0.2,18.3-0.2c6.1,0.1,12.2,0.4,18.3-0.1c6.1-0.6,12.2-2.1,18.3-2.1c6.1,0,12.2,1.5,15.3,2.2l3.1,0.7v6.7h-3.1
	c-3.1,0-9.2,0-15.3,0c-6.1,0-12.2,0-18.3,0c-6.1,0-12.2,0-18.3,0c-6.1,0-12.2,0-18.3,0c-6.1,0-12.2,0-18.3,0c-6.1,0-12.2,0-18.3,0
	c-6.1,0-12.2,0-15.3,0H0V120.4z"/>
</svg>
