<svg id="visual" viewBox="0 0 900 600" width="900" height="600" xmlns="http://www.w3.org/2000/svg"
  xmlns:xlink="http://www.w3.org/1999/xlink" version="1.1">
  <path
    d="M0 127L60 169L120 181L180 193L240 187L300 145L360 181L420 163L480 139L540 169L600 175L660 139L720 151L780 193L840 145L900 151L900 0L840 0L780 0L720 0L660 0L600 0L540 0L480 0L420 0L360 0L300 0L240 0L180 0L120 0L60 0L0 0Z"
    fill="rgb(209, 250, 229)"></path>
  <path
    d="M0 211L60 253L120 271L180 277L240 271L300 235L360 241L420 253L480 223L540 259L600 253L660 205L720 223L780 265L840 217L900 229L900 149L840 143L780 191L720 149L660 137L600 173L540 167L480 137L420 161L360 179L300 143L240 185L180 191L120 179L60 167L0 125Z"
    fill="rgb(167, 243, 208)"></path>
  <path
    d="M0 271L60 313L120 319L180 331L240 319L300 283L360 301L420 319L480 277L540 325L600 307L660 253L720 289L780 331L840 271L900 289L900 227L840 215L780 263L720 221L660 203L600 251L540 257L480 221L420 251L360 239L300 233L240 269L180 275L120 269L60 251L0 209Z"
    fill="rgb(110, 231, 183)"></path>
  <path
    d="M0 343L60 379L120 379L180 403L240 391L300 349L360 367L420 367L480 343L540 373L600 379L660 307L720 355L780 397L840 325L900 349L900 287L840 269L780 329L720 287L660 251L600 305L540 323L480 275L420 317L360 299L300 281L240 317L180 329L120 317L60 311L0 269Z"
    fill="rgb(110, 231, 183)"></path>
  <path
    d="M0 445L60 475L120 469L180 481L240 481L300 433L360 445L420 445L480 439L540 451L600 487L660 427L720 463L780 475L840 445L900 463L900 347L840 323L780 395L720 353L660 305L600 377L540 371L480 341L420 365L360 365L300 347L240 389L180 401L120 377L60 377L0 341Z"
    fill="rgb(167, 243, 208)"></path>
  <path
    d="M0 601L60 601L120 601L180 601L240 601L300 601L360 601L420 601L480 601L540 601L600 601L660 601L720 601L780 601L840 601L900 601L900 461L840 443L780 473L720 461L660 425L600 485L540 449L480 437L420 443L360 443L300 431L240 479L180 479L120 467L60 473L0 443Z"
    fill="rgb(209, 250, 229)"></path>
</svg>