<?xml version="1.0" encoding="utf-8"?>
<!-- Generator: Adobe Illustrator 25.0.1, SVG Export Plug-In . SVG Version: 6.00 Build 0)  -->
<svg version="1.1" id="Слой_1" xmlns="http://www.w3.org/2000/svg" xmlns:xlink="http://www.w3.org/1999/xlink" x="0px" y="0px"
	 viewBox="0 0 128 128" style="enable-background:new 0 0 128 128;" xml:space="preserve">
<style type="text/css">
	.st0{fill:none;}
	.st1{fill:#000AAC;}
	.st2{fill:none;stroke:#000AAC;stroke-width:4.5;stroke-miterlimit:10;}
	.st3{fill:none;stroke:#000FFA;stroke-width:4.5;stroke-miterlimit:10;}
	.st4{fill:none;stroke:#000FFA;stroke-width:2;stroke-miterlimit:10;}
	.st5{fill:none;stroke:#000AAC;stroke-miterlimit:10;}
	.st6{fill:#6AD3FF;stroke:#000AAC;stroke-miterlimit:10;}
	.st7{fill:#03007F;stroke:#020202;stroke-miterlimit:10;}
	.st8{fill:#410AFF;}
	.st9{fill:#0040FF;}
	.st10{fill:#0038C9;}
	.st11{fill:none;stroke:#000000;stroke-width:4.5;stroke-miterlimit:10;}
	.st12{fill:none;stroke:#000000;stroke-width:2;stroke-miterlimit:10;}
	.st13{fill:#03007F;stroke:#000000;stroke-miterlimit:10;}
	.st14{fill:none;stroke:#000000;stroke-miterlimit:10;}
	.st15{fill:#6AD3FF;stroke:#000000;stroke-miterlimit:10;}
	.st16{fill:none;stroke:#C0C0C0;stroke-width:4.5;stroke-miterlimit:10;}
	.st17{fill:none;stroke:#C0C0C0;stroke-width:2;stroke-miterlimit:10;}
	.st18{fill:none;stroke:#020202;stroke-miterlimit:10;}
	.st19{fill:#6AD3FF;stroke:#64FF2A;stroke-miterlimit:10;}
</style>
<path class="st0" d="M619.3-526.7"/>
<g>
	<polygon class="st1" points="73.4,71.7 76.9,70.2 76.9,68 73.1,69.2 	"/>
	<g>
		<polygon class="st1" points="73.4,55.3 76.9,52.2 77.9,58.4 73.6,58.4 		"/>
	</g>
	<g>
		<line class="st2" x1="42.6" y1="63.5" x2="81.1" y2="63.5"/>
		<line class="st2" x1="80.8" y1="63.5" x2="72.1" y2="57.1"/>
		<line class="st2" x1="72.1" y1="69.9" x2="80.8" y2="63.5"/>
	</g>
	<g>
		<line class="st3" x1="46.1" y1="61.2" x2="84.6" y2="61.2"/>
		<line class="st3" x1="84.2" y1="61.2" x2="75.6" y2="53.9"/>
		<line class="st3" x1="75.6" y1="68.4" x2="84.2" y2="61.2"/>
	</g>
	<ellipse class="st4" cx="84.1" cy="61.2" rx="1.3" ry="1.3"/>
	<line class="st5" x1="47.8" y1="61.2" x2="84.4" y2="61.2"/>
	<line class="st5" x1="84.1" y1="61.1" x2="77.1" y2="55.2"/>
	<line class="st5" x1="77.1" y1="67.2" x2="84.1" y2="61.3"/>
	<g>
		<polyline class="st1" points="42.6,61.3 42.6,65.6 42.6,65.6 46.1,63.6 46.1,58.9 42.6,61.3 		"/>
	</g>
	<circle class="st6" cx="84.1" cy="61.2" r="0.1"/>
</g>
<path class="st7" d="M-257.7,107.3"/>
<polygon class="st8" points="-209.6,55 -206,53.1 -208.8,57.2 "/>
<polyline class="st9" points="-209.6,72.9 -206,71 -205.8,69 -209.6,70.6 "/>
<path class="st9" d="M-209.6,72.9l0.1-2.3L-209.6,72.9z"/>
<polygon class="st10" points="-175.1,61.2 -179.2,63.5 -178.7,66.2 -175,64.3 "/>
<line class="st11" x1="-178.7" y1="63.9" x2="-217.1" y2="63.9"/>
<line class="st11" x1="-216.9" y1="63.9" x2="-208.2" y2="56.7"/>
<line class="st11" x1="-208.2" y1="71.2" x2="-216.9" y2="63.9"/>
<ellipse class="st12" cx="-216.8" cy="63.9" rx="1.3" ry="1.3"/>
<path class="st13" d="M-217,63.9"/>
<path class="st14" d="M-209.7,57.9"/>
<path class="st14" d="M-216.7,64.1"/>
<path class="st14" d="M-209.7,70"/>
<path class="st15" d="M-216.6,63.8c0.1,0,0.1,0.1,0.1,0.1"/>
<g>
	<line class="st16" x1="-175" y1="62.1" x2="-213.5" y2="62.1"/>
	<line class="st16" x1="-213.3" y1="62.1" x2="-204.6" y2="54.8"/>
	<line class="st16" x1="-204.6" y1="69.3" x2="-213.3" y2="62.1"/>
</g>
<ellipse class="st17" cx="-213.2" cy="62.1" rx="1.3" ry="1.3"/>
<line class="st18" x1="-176.8" y1="62.1" x2="-213.4" y2="62.1"/>
<line class="st18" x1="-213.1" y1="61.9" x2="-206" y2="56"/>
<line class="st18" x1="-206" y1="68.1" x2="-213.1" y2="62.2"/>
<circle class="st19" cx="-213" cy="62.1" r="0.1"/>
</svg>
