<svg id="visual" viewBox="0 0 900 600" width="900" height="600" xmlns="http://www.w3.org/2000/svg" xmlns:xlink="http://www.w3.org/1999/xlink" version="1.1"><rect x="0" y="0" width="900" height="600" fill="#140021"></rect><path d="M0 315L129 315L129 308L257 308L257 313L386 313L386 275L514 275L514 251L643 251L643 334L771 334L771 261L900 261L900 283L900 601L900 601L771 601L771 601L643 601L643 601L514 601L514 601L386 601L386 601L257 601L257 601L129 601L129 601L0 601Z" fill="#9900ff"></path><path d="M0 329L129 329L129 354L257 354L257 391L386 391L386 408L514 408L514 402L643 402L643 352L771 352L771 369L900 369L900 394L900 601L900 601L771 601L771 601L643 601L643 601L514 601L514 601L386 601L386 601L257 601L257 601L129 601L129 601L0 601Z" fill="#8200d9"></path><path d="M0 423L129 423L129 406L257 406L257 409L386 409L386 469L514 469L514 447L643 447L643 443L771 443L771 415L900 415L900 461L900 601L900 601L771 601L771 601L643 601L643 601L514 601L514 601L386 601L386 601L257 601L257 601L129 601L129 601L0 601Z" fill="#6c00b4"></path><path d="M0 505L129 505L129 519L257 519L257 551L386 551L386 546L514 546L514 537L643 537L643 491L771 491L771 532L900 532L900 485L900 601L900 601L771 601L771 601L643 601L643 601L514 601L514 601L386 601L386 601L257 601L257 601L129 601L129 601L0 601Z" fill="#560090"></path></svg>