<svg id="visual" viewBox="0 0 900 600" width="900" height="600" xmlns="http://www.w3.org/2000/svg" xmlns:xlink="http://www.w3.org/1999/xlink" version="1.1"><path d="M262 0L280 0L280 46L173 46L173 92L243 92L243 138L219 138L219 185L216 185L216 231L224 231L224 277L242 277L242 323L181 323L181 369L268 369L268 415L210 415L210 462L185 462L185 508L170 508L170 554L168 554L168 600L0 600L0 554L0 554L0 508L0 508L0 462L0 462L0 415L0 415L0 369L0 369L0 323L0 323L0 277L0 277L0 231L0 231L0 185L0 185L0 138L0 138L0 92L0 92L0 46L0 46L0 0L0 0Z" fill="#a7f3d0"></path><path d="M219 0L202 0L202 46L130 46L130 92L188 92L188 138L170 138L170 185L231 185L231 231L143 231L143 277L169 277L169 323L174 323L174 369L207 369L207 415L231 415L231 462L142 462L142 508L209 508L209 554L201 554L201 600L0 600L0 554L0 554L0 508L0 508L0 462L0 462L0 415L0 415L0 369L0 369L0 323L0 323L0 277L0 277L0 231L0 231L0 185L0 185L0 138L0 138L0 92L0 92L0 46L0 46L0 0L0 0Z" fill="#7bd4ac"></path><path d="M168 0L127 0L127 46L171 46L171 92L159 92L159 138L170 138L170 185L157 185L157 231L138 231L138 277L121 277L121 323L96 323L96 369L148 369L148 415L146 415L146 462L171 462L171 508L152 508L152 554L146 554L146 600L0 600L0 554L0 554L0 508L0 508L0 462L0 462L0 415L0 415L0 369L0 369L0 323L0 323L0 277L0 277L0 231L0 231L0 185L0 185L0 138L0 138L0 92L0 92L0 46L0 46L0 0L0 0Z" fill="#4db58a"></path><path d="M69 0L72 0L72 46L115 46L115 92L111 92L111 138L108 138L108 185L86 185L86 231L108 231L108 277L105 277L105 323L68 323L68 369L76 369L76 415L111 415L111 462L78 462L78 508L117 508L117 554L77 554L77 600L0 600L0 554L0 554L0 508L0 508L0 462L0 462L0 415L0 415L0 369L0 369L0 323L0 323L0 277L0 277L0 231L0 231L0 185L0 185L0 138L0 138L0 92L0 92L0 46L0 46L0 0L0 0Z" fill="#059669"></path></svg>