<svg id="visual" viewBox="0 0 900 600" width="900" height="600" xmlns="http://www.w3.org/2000/svg" xmlns:xlink="http://www.w3.org/1999/xlink" version="1.1"><path d="M0 496L16.7 497.5C33.3 499 66.7 502 100 505.8C133.3 509.7 166.7 514.3 200 514C233.3 513.7 266.7 508.3 300 506.3C333.3 504.3 366.7 505.7 400 507.2C433.3 508.7 466.7 510.3 500 508.7C533.3 507 566.7 502 600 501.5C633.3 501 666.7 505 700 506.2C733.3 507.3 766.7 505.7 800 507.8C833.3 510 866.7 516 883.3 519L900 522L900 601L883.3 601C866.7 601 833.3 601 800 601C766.7 601 733.3 601 700 601C666.7 601 633.3 601 600 601C566.7 601 533.3 601 500 601C466.7 601 433.3 601 400 601C366.7 601 333.3 601 300 601C266.7 601 233.3 601 200 601C166.7 601 133.3 601 100 601C66.7 601 33.3 601 16.7 601L0 601Z" fill="#fecaca"></path><path d="M0 538L16.7 537.3C33.3 536.7 66.7 535.3 100 534.7C133.3 534 166.7 534 200 534.5C233.3 535 266.7 536 300 532.3C333.3 528.7 366.7 520.3 400 519.2C433.3 518 466.7 524 500 528.2C533.3 532.3 566.7 534.7 600 535.5C633.3 536.3 666.7 535.7 700 531.5C733.3 527.3 766.7 519.7 800 517.5C833.3 515.3 866.7 518.7 883.3 520.3L900 522L900 601L883.3 601C866.7 601 833.3 601 800 601C766.7 601 733.3 601 700 601C666.7 601 633.3 601 600 601C566.7 601 533.3 601 500 601C466.7 601 433.3 601 400 601C366.7 601 333.3 601 300 601C266.7 601 233.3 601 200 601C166.7 601 133.3 601 100 601C66.7 601 33.3 601 16.7 601L0 601Z" fill="#fdadab"></path><path d="M0 528L16.7 528.2C33.3 528.3 66.7 528.7 100 529C133.3 529.3 166.7 529.7 200 529.5C233.3 529.3 266.7 528.7 300 530.7C333.3 532.7 366.7 537.3 400 538C433.3 538.7 466.7 535.3 500 536.7C533.3 538 566.7 544 600 545.8C633.3 547.7 666.7 545.3 700 542.3C733.3 539.3 766.7 535.7 800 534C833.3 532.3 866.7 532.7 883.3 532.8L900 533L900 601L883.3 601C866.7 601 833.3 601 800 601C766.7 601 733.3 601 700 601C666.7 601 633.3 601 600 601C566.7 601 533.3 601 500 601C466.7 601 433.3 601 400 601C366.7 601 333.3 601 300 601C266.7 601 233.3 601 200 601C166.7 601 133.3 601 100 601C66.7 601 33.3 601 16.7 601L0 601Z" fill="#f98f8a"></path><path d="M0 552L16.7 553C33.3 554 66.7 556 100 557.7C133.3 559.3 166.7 560.7 200 561C233.3 561.3 266.7 560.7 300 557.8C333.3 555 366.7 550 400 551C433.3 552 466.7 559 500 561.7C533.3 564.3 566.7 562.7 600 560.2C633.3 557.7 666.7 554.3 700 554.3C733.3 554.3 766.7 557.7 800 558.8C833.3 560 866.7 559 883.3 558.5L900 558L900 601L883.3 601C866.7 601 833.3 601 800 601C766.7 601 733.3 601 700 601C666.7 601 633.3 601 600 601C566.7 601 533.3 601 500 601C466.7 601 433.3 601 400 601C366.7 601 333.3 601 300 601C266.7 601 233.3 601 200 601C166.7 601 133.3 601 100 601C66.7 601 33.3 601 16.7 601L0 601Z" fill="#f2716a"></path><path d="M0 558L16.7 560.2C33.3 562.3 66.7 566.7 100 567.2C133.3 567.7 166.7 564.3 200 564.2C233.3 564 266.7 567 300 568.7C333.3 570.3 366.7 570.7 400 571.5C433.3 572.3 466.7 573.7 500 573.2C533.3 572.7 566.7 570.3 600 569.5C633.3 568.7 666.7 569.3 700 567.8C733.3 566.3 766.7 562.7 800 563.2C833.3 563.7 866.7 568.3 883.3 570.7L900 573L900 601L883.3 601C866.7 601 833.3 601 800 601C766.7 601 733.3 601 700 601C666.7 601 633.3 601 600 601C566.7 601 533.3 601 500 601C466.7 601 433.3 601 400 601C366.7 601 333.3 601 300 601C266.7 601 233.3 601 200 601C166.7 601 133.3 601 100 601C66.7 601 33.3 601 16.7 601L0 601Z" fill="#e95048"></path><path d="M0 590L16.7 589.8C33.3 589.7 66.7 589.3 100 587.8C133.3 586.3 166.7 583.7 200 583.8C233.3 584 266.7 587 300 588C333.3 589 366.7 588 400 587.2C433.3 586.3 466.7 585.7 500 584.8C533.3 584 566.7 583 600 583.7C633.3 584.3 666.7 586.7 700 585.8C733.3 585 766.7 581 800 579.8C833.3 578.7 866.7 580.3 883.3 581.2L900 582L900 601L883.3 601C866.7 601 833.3 601 800 601C766.7 601 733.3 601 700 601C666.7 601 633.3 601 600 601C566.7 601 533.3 601 500 601C466.7 601 433.3 601 400 601C366.7 601 333.3 601 300 601C266.7 601 233.3 601 200 601C166.7 601 133.3 601 100 601C66.7 601 33.3 601 16.7 601L0 601Z" fill="#dc2626"></path></svg>