<svg id="visual" viewBox="0 0 900 600" width="900" height="600" xmlns="http://www.w3.org/2000/svg" xmlns:xlink="http://www.w3.org/1999/xlink" version="1.1"><path d="M0 484L129 468L257 483L386 505L514 475L643 503L771 467L900 492L900 601L771 601L643 601L514 601L386 601L257 601L129 601L0 601Z" fill="#0284c7"></path><path d="M0 498L129 495L257 496L386 528L514 491L643 479L771 478L900 520L900 601L771 601L643 601L514 601L386 601L257 601L129 601L0 601Z" fill="#479cd5"></path><path d="M0 537L129 523L257 534L386 504L514 510L643 511L771 523L900 540L900 601L771 601L643 601L514 601L386 601L257 601L129 601L0 601Z" fill="#6fb5e2"></path><path d="M0 563L129 543L257 561L386 551L514 538L643 540L771 549L900 543L900 601L771 601L643 601L514 601L386 601L257 601L129 601L0 601Z" fill="#94ceef"></path><path d="M0 557L129 580L257 557L386 576L514 556L643 581L771 568L900 565L900 601L771 601L643 601L514 601L386 601L257 601L129 601L0 601Z" fill="#bae6fd"></path></svg>