<svg id="visual" viewBox="0 0 900 600" width="900" height="600" xmlns="http://www.w3.org/2000/svg" xmlns:xlink="http://www.w3.org/1999/xlink" version="1.1"><path d="M0 103L60 151L120 187L180 175L240 121L300 187L360 115L420 97L480 199L540 121L600 139L660 193L720 127L780 133L840 91L900 181L900 0L840 0L780 0L720 0L660 0L600 0L540 0L480 0L420 0L360 0L300 0L240 0L180 0L120 0L60 0L0 0Z" fill="#ffedd5"></path><path d="M0 307L60 337L120 361L180 337L240 343L300 313L360 313L420 325L480 319L540 325L600 259L660 319L720 265L780 355L840 313L900 355L900 179L840 89L780 131L720 125L660 191L600 137L540 119L480 197L420 95L360 113L300 185L240 119L180 173L120 185L60 149L0 101Z" fill="#ebd0c4"></path><path d="M0 373L60 397L120 403L180 373L240 391L300 391L360 391L420 403L480 391L540 373L600 337L660 397L720 343L780 433L840 391L900 433L900 353L840 311L780 353L720 263L660 317L600 257L540 323L480 317L420 323L360 311L300 311L240 341L180 335L120 359L60 335L0 305Z" fill="#d0b5b5"></path><path d="M0 451L60 457L120 463L180 439L240 451L300 511L360 463L420 481L480 469L540 481L600 457L660 481L720 463L780 499L840 475L900 493L900 431L840 389L780 431L720 341L660 395L600 335L540 371L480 389L420 401L360 389L300 389L240 389L180 371L120 401L60 395L0 371Z" fill="#b19da5"></path><path d="M0 529L60 547L120 529L180 553L240 559L300 565L360 523L420 523L480 565L540 529L600 517L660 523L720 517L780 565L840 541L900 547L900 491L840 473L780 497L720 461L660 479L600 455L540 479L480 467L420 479L360 461L300 509L240 449L180 437L120 461L60 455L0 449Z" fill="#908791"></path><path d="M0 601L60 601L120 601L180 601L240 601L300 601L360 601L420 601L480 601L540 601L600 601L660 601L720 601L780 601L840 601L900 601L900 545L840 539L780 563L720 515L660 521L600 515L540 527L480 563L420 521L360 521L300 563L240 557L180 551L120 527L60 545L0 527Z" fill="#71717a"></path></svg>