<?xml version="1.0" encoding="utf-8"?>
<!-- Generator: Adobe Illustrator 25.0.1, SVG Export Plug-In . SVG Version: 6.00 Build 0)  -->
<svg version="1.1" id="visual" xmlns="http://www.w3.org/2000/svg" xmlns:xlink="http://www.w3.org/1999/xlink" x="0px" y="0px"
	 viewBox="0 0 900 600" style="enable-background:new 0 0 900 600;" xml:space="preserve">
<style type="text/css">
	.st0{fill:#FDE68A;}
</style>
<g>
	<g transform="translate(719 360)">
		<path class="st0" d="M23.1,73l23.1,13.4V113l-23.1,13.4L0,113V86.4L23.1,73z"/>
	</g>
	<g transform="translate(795 548)">
		<path class="st0" d="M0-19l16.5,9.5v19L0,19l-16.5-9.5v-19L0-19z"/>
	</g>
	<g transform="translate(17 270)">
		<path class="st0" d="M0-20l17.3,10v20L0,20l-17.3-10v-20L0-20z"/>
	</g>
	<g transform="translate(839 29)">
		<path class="st0" d="M0-18l15.6,9V9L0,18l-15.6-9V-9L0-18z"/>
	</g>
	<g transform="translate(484 583)">
		<path class="st0" d="M0-24l20.8,12v24L0,24l-20.8-12v-24L0-24z"/>
	</g>
	<g transform="translate(462 534)">
		<path class="st0" d="M-114.3,43L-97,53v20l-17.3,10l-17.3-10V53L-114.3,43z"/>
	</g>
	<g transform="translate(6 140)">
		<path class="st0" d="M0-19l16.5,9.5v19L0,19l-16.5-9.5v-19L0-19z"/>
	</g>
	<g transform="translate(79 414)">
		<path class="st0" d="M0-19l16.5,9.5v19L0,19l-16.5-9.5v-19L0-19z"/>
	</g>
	<g transform="translate(390 94)">
		<path class="st0" d="M-117.3-82l21.7,12.5v25L-117.3-32L-139-44.5v-25L-117.3-82z"/>
	</g>
	<g transform="translate(477 235)">
		<path class="st0" d="M367.2-58.1l18.2,10.5v21l-18.2,10.5L349-26.6v-21L367.2-58.1z"/>
	</g>
	<g transform="translate(186 579)">
		<path class="st0" d="M0-20l17.3,10v20L0,20l-17.3-10v-20L0-20z"/>
	</g>
	<g transform="translate(384 390)">
		<path class="st0" d="M317.7-60l13,7.5v15l-13,7.5l-13-7.5v-15L317.7-60z"/>
	</g>
	<g transform="translate(818 113)">
		<path class="st0" d="M0-24l20.8,12v24L0,24l-20.8-12v-24L0-24z"/>
	</g>
	<g transform="translate(642 499)">
		<path class="st0" d="M0-22l19.1,11v22L0,22l-19.1-11v-22L0-22z"/>
	</g>
	<g transform="translate(493 320)">
		<path class="st0" d="M168.1,255l19.1,11v22l-19.1,11L149,288v-22L168.1,255z"/>
	</g>
	<g transform="translate(16 597)">
		<path class="st0" d="M0-21l18.2,10.5v21L0,21l-18.2-10.5v-21L0-21z"/>
	</g>
	<g transform="translate(34 85)">
		<path class="st0" d="M0-21l18.2,10.5v21L0,21l-18.2-10.5v-21L0-21z"/>
	</g>
	<g transform="translate(256 449)">
		<path class="st0" d="M-87.3-65l12.1,7v14l-12.1,7l-12.1-7v-14L-87.3-65z"/>
	</g>
	<g transform="translate(448 12)">
		<path class="st0" d="M0-13l11.3,6.5v13L0,13l-11.3-6.5v-13L0-13z"/>
	</g>
	<g transform="translate(96 160)">
		<path class="st0" d="M0-23l19.9,11.5v23L0,23l-19.9-11.5v-23L0-23z"/>
	</g>
	<g transform="translate(777 230)">
		<path class="st0" d="M0-21l18.2,10.5v21L0,21l-18.2-10.5v-21L0-21z"/>
	</g>
	<g transform="translate(523 271)">
		<path class="st0" d="M196-227l17.3,10v20L196-187l-17.3-10v-20L196-227z"/>
	</g>
	<g transform="translate(178 511)">
		<path class="st0" d="M0-22l19.1,11v22L0,22l-19.1-11v-22L0-22z"/>
	</g>
	<g transform="translate(894 297)">
		<path class="st0" d="M0-19l16.5,9.5v19L0,19l-16.5-9.5v-19L0-19z"/>
	</g>
	<g transform="translate(251 551)">
		<path class="st0" d="M0-17l14.7,8.5v17L0,17l-14.7-8.5v-17L0-17z"/>
	</g>
	<g transform="translate(876 450)">
		<path class="st0" d="M0-13l11.3,6.5v13L0,13l-11.3-6.5v-13L0-13z"/>
	</g>
	<g transform="translate(287 178)">
		<path class="st0" d="M-128.1-113l12.1,7v14l-12.1,7l-12.1-7v-14L-128.1-113z"/>
	</g>
	<g transform="translate(100 532)">
		<path class="st0" d="M0-21l18.2,10.5v21L0,21l-18.2-10.5v-21L0-21z"/>
	</g>
	<g transform="translate(129 291)">
		<path class="st0" d="M0-22l19.1,11v22L0,22l-19.1-11v-22L0-22z"/>
	</g>
	<g transform="translate(519 541)">
		<path class="st0" d="M182.7-22l19.1,11v22l-19.1,11l-19.1-11v-22L182.7-22z"/>
	</g>
	<g transform="translate(624 85)">
		<path class="st0" d="M104.4,43.9l20.8,12v24l-20.8,12l-20.8-12v-24L104.4,43.9z"/>
	</g>
	<g transform="translate(621 177)">
		<path class="st0" d="M202.4,183l20.8,12v24l-20.8,12l-20.8-12v-24L202.4,183z"/>
	</g>
	<g transform="translate(838 295)">
		<path class="st0" d="M0-25l21.7,12.5v25L0,25l-21.7-12.5v-25L0-25z"/>
	</g>
</g>
</svg>
